# MagicaVoxel @ Ephtracy

# group
o 

# material
mtllib Toy_Present.vox.mtl
usemtl palette

# normals
vn -1 0 0
vn 1 0 0
vn 0 0 1
vn 0 0 -1
vn 0 -1 0
vn 0 1 0

# texcoords
vt 0.126953 0.5
vt 0.587891 0.5

# verts
v -0.6 0 0.6
v -0.6 0 0.1
v -0.6 0 5.96046e-08
v -0.6 0 -0.5
v -0.6 0.7 0.6
v -0.6 0.7 0.1
v -0.6 0.7 5.96046e-08
v -0.6 0.7 -0.5
v -0.3 0.7 -0.1
v -0.3 0.7 -0.2
v -0.3 1 -0.1
v -0.3 1 -0.2
v -0.2 0.7 0.3
v -0.2 0.7 0.2
v -0.2 1 0.3
v -0.2 1 0.2
v -0.1 0.7 0.1
v -0.1 0.7 5.96046e-08
v -0.1 0.9 0.2
v -0.1 0.9 0.1
v -0.1 0.9 5.96046e-08
v -0.1 0.9 -0.1
v -0.1 1 0.2
v -0.1 1 -0.1
v -5.96046e-08 0.7 0.3
v -5.96046e-08 0.7 0.2
v -5.96046e-08 0.7 -0.1
v -5.96046e-08 0.7 -0.2
v -5.96046e-08 0.8 0.3
v -5.96046e-08 0.8 0.2
v -5.96046e-08 0.8 -0.1
v -5.96046e-08 0.8 -0.2
v 0.1 0.8 0.3
v 0.1 0.8 0.2
v 0.1 0.8 -0.1
v 0.1 0.8 -0.2
v 0.1 0.9 0.3
v 0.1 0.9 0.2
v 0.1 0.9 -0.1
v 0.1 0.9 -0.2
v -0.2 0.7 -0.1
v -0.2 0.7 -0.2
v -0.2 0.9 -0.1
v -0.2 0.9 -0.2
v -0.1 0.7 0.3
v -0.1 0.7 0.2
v -0.1 0.9 0.3
v -0.1 0.9 0.2
v -5.96046e-08 0.7 0.1
v -5.96046e-08 0.7 5.96046e-08
v -5.96046e-08 0.9 0.2
v -5.96046e-08 0.9 0.1
v -5.96046e-08 0.9 5.96046e-08
v -5.96046e-08 0.9 -0.1
v -5.96046e-08 1 0.2
v -5.96046e-08 1 -0.1
v 0.2 0.7 0.3
v 0.2 0.7 0.2
v 0.2 0.7 -0.1
v 0.2 0.7 -0.2
v 0.2 1 0.3
v 0.2 1 0.2
v 0.2 1 -0.1
v 0.2 1 -0.2
v 0.5 0 0.6
v 0.5 0 0.1
v 0.5 0 5.96046e-08
v 0.5 0 -0.5
v 0.5 0.7 0.6
v 0.5 0.7 0.1
v 0.5 0.7 5.96046e-08
v 0.5 0.7 -0.5
v -0.6 0 0.6
v -0.6 0.7 0.6
v -0.1 0 0.6
v -0.1 0.7 0.6
v -5.96046e-08 0 0.6
v -5.96046e-08 0.7 0.6
v 0.5 0 0.6
v 0.5 0.7 0.6
v -0.2 0.7 0.3
v -0.2 1 0.3
v -0.1 0.7 0.3
v -0.1 0.9 0.3
v -5.96046e-08 0.7 0.3
v -5.96046e-08 0.8 0.3
v 0.1 0.8 0.3
v 0.1 0.9 0.3
v 0.2 0.7 0.3
v 0.2 1 0.3
v -0.1 0.7 0.1
v -0.1 0.9 0.1
v -5.96046e-08 0.7 0.1
v -5.96046e-08 0.9 0.1
v -0.3 0.7 -0.1
v -0.3 1 -0.1
v -0.2 0.7 -0.1
v -0.2 0.9 -0.1
v -0.1 0.9 -0.1
v -0.1 1 -0.1
v -5.96046e-08 0.7 -0.1
v -5.96046e-08 0.8 -0.1
v -5.96046e-08 0.9 -0.1
v -5.96046e-08 1 -0.1
v 0.1 0.8 -0.1
v 0.1 0.9 -0.1
v 0.2 0.7 -0.1
v 0.2 1 -0.1
v -0.2 0.7 0.2
v -0.2 1 0.2
v -0.1 0.7 0.2
v -0.1 0.9 0.2
v -0.1 1 0.2
v -5.96046e-08 0.7 0.2
v -5.96046e-08 0.8 0.2
v -5.96046e-08 0.9 0.2
v -5.96046e-08 1 0.2
v 0.1 0.8 0.2
v 0.1 0.9 0.2
v 0.2 0.7 0.2
v 0.2 1 0.2
v -0.1 0.7 5.96046e-08
v -0.1 0.9 5.96046e-08
v -5.96046e-08 0.7 5.96046e-08
v -5.96046e-08 0.9 5.96046e-08
v -0.3 0.7 -0.2
v -0.3 1 -0.2
v -0.2 0.7 -0.2
v -0.2 0.9 -0.2
v -5.96046e-08 0.7 -0.2
v -5.96046e-08 0.8 -0.2
v 0.1 0.8 -0.2
v 0.1 0.9 -0.2
v 0.2 0.7 -0.2
v 0.2 1 -0.2
v -0.6 0 -0.5
v -0.6 0.7 -0.5
v -0.1 0 -0.5
v -0.1 0.7 -0.5
v -5.96046e-08 0 -0.5
v -5.96046e-08 0.7 -0.5
v 0.5 0 -0.5
v 0.5 0.7 -0.5
v -0.6 0 0.6
v -0.1 0 0.6
v -5.96046e-08 0 0.6
v 0.5 0 0.6
v -0.6 0 0.1
v -0.1 0 0.1
v -5.96046e-08 0 0.1
v 0.5 0 0.1
v -0.6 0 5.96046e-08
v -0.1 0 5.96046e-08
v -5.96046e-08 0 5.96046e-08
v 0.5 0 5.96046e-08
v -0.6 0 -0.5
v -0.1 0 -0.5
v -5.96046e-08 0 -0.5
v 0.5 0 -0.5
v -0.1 0.9 0.3
v 0.1 0.9 0.3
v -0.1 0.9 0.2
v -5.96046e-08 0.9 0.2
v 0.1 0.9 0.2
v -0.1 0.9 0.1
v -5.96046e-08 0.9 0.1
v -0.1 0.9 5.96046e-08
v -5.96046e-08 0.9 5.96046e-08
v -0.2 0.9 -0.1
v -0.1 0.9 -0.1
v -5.96046e-08 0.9 -0.1
v 0.1 0.9 -0.1
v -0.2 0.9 -0.2
v 0.1 0.9 -0.2
v -0.6 0.7 0.6
v -0.1 0.7 0.6
v -5.96046e-08 0.7 0.6
v 0.5 0.7 0.6
v -0.2 0.7 0.3
v -0.1 0.7 0.3
v -5.96046e-08 0.7 0.3
v 0.2 0.7 0.3
v -0.2 0.7 0.2
v -0.1 0.7 0.2
v -5.96046e-08 0.7 0.2
v 0.2 0.7 0.2
v -0.6 0.7 0.1
v -0.1 0.7 0.1
v -5.96046e-08 0.7 0.1
v 0.5 0.7 0.1
v -0.6 0.7 5.96046e-08
v -0.1 0.7 5.96046e-08
v -5.96046e-08 0.7 5.96046e-08
v 0.5 0.7 5.96046e-08
v -0.3 0.7 -0.1
v -0.2 0.7 -0.1
v -5.96046e-08 0.7 -0.1
v 0.2 0.7 -0.1
v -0.3 0.7 -0.2
v -0.2 0.7 -0.2
v -5.96046e-08 0.7 -0.2
v 0.2 0.7 -0.2
v -0.6 0.7 -0.5
v -0.1 0.7 -0.5
v -5.96046e-08 0.7 -0.5
v 0.5 0.7 -0.5
v -5.96046e-08 0.8 0.3
v 0.1 0.8 0.3
v -5.96046e-08 0.8 0.2
v 0.1 0.8 0.2
v -5.96046e-08 0.8 -0.1
v 0.1 0.8 -0.1
v -5.96046e-08 0.8 -0.2
v 0.1 0.8 -0.2
v -0.2 1 0.3
v 0.2 1 0.3
v -0.2 1 0.2
v -0.1 1 0.2
v -5.96046e-08 1 0.2
v 0.2 1 0.2
v -0.3 1 -0.1
v -0.1 1 -0.1
v -5.96046e-08 1 -0.1
v 0.2 1 -0.1
v -0.3 1 -0.2
v 0.2 1 -0.2

# faces
f 5/2/1 2/2/1 1/2/1
f 6/1/1 3/1/1 2/1/1
f 6/2/1 2/2/1 5/2/1
f 7/2/1 4/2/1 3/2/1
f 7/1/1 3/1/1 6/1/1
f 8/2/1 4/2/1 7/2/1
f 11/1/1 10/1/1 9/1/1
f 12/1/1 10/1/1 11/1/1
f 15/1/1 14/1/1 13/1/1
f 16/1/1 14/1/1 15/1/1
f 20/1/1 18/1/1 17/1/1
f 21/1/1 18/1/1 20/1/1
f 23/1/1 20/1/1 19/1/1
f 23/1/1 22/1/1 21/1/1
f 23/1/1 21/1/1 20/1/1
f 24/1/1 22/1/1 23/1/1
f 29/1/1 26/1/1 25/1/1
f 30/1/1 26/1/1 29/1/1
f 31/1/1 28/1/1 27/1/1
f 32/1/1 28/1/1 31/1/1
f 37/1/1 34/1/1 33/1/1
f 38/1/1 34/1/1 37/1/1
f 39/1/1 36/1/1 35/1/1
f 40/1/1 36/1/1 39/1/1
f 41/1/2 42/1/2 43/1/2
f 43/1/2 42/1/2 44/1/2
f 45/1/2 46/1/2 47/1/2
f 47/1/2 46/1/2 48/1/2
f 49/1/2 50/1/2 52/1/2
f 52/1/2 50/1/2 53/1/2
f 51/1/2 52/1/2 55/1/2
f 53/1/2 54/1/2 55/1/2
f 52/1/2 53/1/2 55/1/2
f 55/1/2 54/1/2 56/1/2
f 57/1/2 58/1/2 61/1/2
f 61/1/2 58/1/2 62/1/2
f 59/1/2 60/1/2 63/1/2
f 63/1/2 60/1/2 64/1/2
f 65/2/2 66/2/2 69/2/2
f 66/1/2 67/1/2 70/1/2
f 69/2/2 66/2/2 70/2/2
f 67/2/2 68/2/2 71/2/2
f 70/1/2 67/1/2 71/1/2
f 71/2/2 68/2/2 72/2/2
f 75/2/3 74/2/3 73/2/3
f 76/2/3 74/2/3 75/2/3
f 77/1/3 76/1/3 75/1/3
f 78/1/3 76/1/3 77/1/3
f 79/2/3 78/2/3 77/2/3
f 80/2/3 78/2/3 79/2/3
f 83/1/3 82/1/3 81/1/3
f 84/1/3 82/1/3 83/1/3
f 87/1/3 86/1/3 85/1/3
f 88/1/3 82/1/3 84/1/3
f 89/1/3 87/1/3 85/1/3
f 89/1/3 88/1/3 87/1/3
f 90/1/3 82/1/3 88/1/3
f 90/1/3 88/1/3 89/1/3
f 93/1/3 92/1/3 91/1/3
f 94/1/3 92/1/3 93/1/3
f 97/1/3 96/1/3 95/1/3
f 98/1/3 96/1/3 97/1/3
f 99/1/3 96/1/3 98/1/3
f 100/1/3 96/1/3 99/1/3
f 105/1/3 102/1/3 101/1/3
f 106/1/3 104/1/3 103/1/3
f 107/1/3 105/1/3 101/1/3
f 107/1/3 106/1/3 105/1/3
f 108/1/3 104/1/3 106/1/3
f 108/1/3 106/1/3 107/1/3
f 109/1/4 110/1/4 111/1/4
f 111/1/4 110/1/4 112/1/4
f 112/1/4 110/1/4 113/1/4
f 114/1/4 115/1/4 118/1/4
f 116/1/4 117/1/4 119/1/4
f 114/1/4 118/1/4 120/1/4
f 118/1/4 119/1/4 120/1/4
f 119/1/4 117/1/4 121/1/4
f 120/1/4 119/1/4 121/1/4
f 122/1/4 123/1/4 124/1/4
f 124/1/4 123/1/4 125/1/4
f 126/1/4 127/1/4 128/1/4
f 128/1/4 127/1/4 129/1/4
f 130/1/4 131/1/4 132/1/4
f 129/1/4 127/1/4 133/1/4
f 130/1/4 132/1/4 134/1/4
f 132/1/4 133/1/4 134/1/4
f 133/1/4 127/1/4 135/1/4
f 134/1/4 133/1/4 135/1/4
f 136/2/4 137/2/4 138/2/4
f 138/2/4 137/2/4 139/2/4
f 138/1/4 139/1/4 140/1/4
f 140/1/4 139/1/4 141/1/4
f 140/2/4 141/2/4 142/2/4
f 142/2/4 141/2/4 143/2/4
f 148/2/5 145/2/5 144/2/5
f 149/1/5 146/1/5 145/1/5
f 149/2/5 145/2/5 148/2/5
f 150/2/5 147/2/5 146/2/5
f 150/1/5 146/1/5 149/1/5
f 151/2/5 147/2/5 150/2/5
f 152/1/5 149/1/5 148/1/5
f 152/1/5 150/1/5 149/1/5
f 152/1/5 151/1/5 150/1/5
f 153/1/5 151/1/5 152/1/5
f 154/1/5 151/1/5 153/1/5
f 155/1/5 151/1/5 154/1/5
f 156/2/5 153/2/5 152/2/5
f 157/1/5 154/1/5 153/1/5
f 157/2/5 153/2/5 156/2/5
f 158/2/5 155/2/5 154/2/5
f 158/1/5 154/1/5 157/1/5
f 159/2/5 155/2/5 158/2/5
f 162/1/5 161/1/5 160/1/5
f 163/1/5 161/1/5 162/1/5
f 164/1/5 161/1/5 163/1/5
f 165/1/5 163/1/5 162/1/5
f 166/1/5 163/1/5 165/1/5
f 170/1/5 168/1/5 167/1/5
f 171/1/5 168/1/5 170/1/5
f 173/1/5 171/1/5 170/1/5
f 173/1/5 172/1/5 171/1/5
f 173/1/5 170/1/5 169/1/5
f 174/1/5 172/1/5 173/1/5
f 175/2/6 176/2/6 179/2/6
f 176/1/6 177/1/6 180/1/6
f 179/2/6 176/2/6 180/2/6
f 177/2/6 178/2/6 181/2/6
f 180/1/6 177/1/6 181/1/6
f 181/2/6 178/2/6 182/2/6
f 175/2/6 179/2/6 183/2/6
f 180/1/6 181/1/6 184/1/6
f 184/1/6 181/1/6 185/1/6
f 182/2/6 178/2/6 186/2/6
f 175/2/6 183/2/6 187/2/6
f 183/2/6 184/2/6 187/2/6
f 184/1/6 185/1/6 188/1/6
f 187/2/6 184/2/6 188/2/6
f 185/2/6 186/2/6 189/2/6
f 188/1/6 185/1/6 189/1/6
f 186/2/6 178/2/6 190/2/6
f 189/2/6 186/2/6 190/2/6
f 187/1/6 188/1/6 191/1/6
f 191/1/6 188/1/6 192/1/6
f 189/1/6 190/1/6 193/1/6
f 193/1/6 190/1/6 194/1/6
f 191/2/6 192/2/6 195/2/6
f 195/2/6 192/2/6 196/2/6
f 192/1/6 193/1/6 197/1/6
f 193/2/6 194/2/6 197/2/6
f 197/2/6 194/2/6 198/2/6
f 191/2/6 195/2/6 199/2/6
f 196/2/6 192/2/6 200/2/6
f 192/1/6 197/1/6 201/1/6
f 198/2/6 194/2/6 202/2/6
f 191/2/6 199/2/6 203/2/6
f 199/2/6 200/2/6 203/2/6
f 192/1/6 201/1/6 204/1/6
f 203/2/6 200/2/6 204/2/6
f 200/2/6 192/2/6 204/2/6
f 201/2/6 202/2/6 205/2/6
f 204/1/6 201/1/6 205/1/6
f 202/2/6 194/2/6 206/2/6
f 205/2/6 202/2/6 206/2/6
f 207/1/6 208/1/6 209/1/6
f 209/1/6 208/1/6 210/1/6
f 211/1/6 212/1/6 213/1/6
f 213/1/6 212/1/6 214/1/6
f 215/1/6 216/1/6 217/1/6
f 217/1/6 216/1/6 218/1/6
f 218/1/6 216/1/6 219/1/6
f 219/1/6 216/1/6 220/1/6
f 218/1/6 219/1/6 222/1/6
f 222/1/6 219/1/6 223/1/6
f 221/1/6 222/1/6 225/1/6
f 223/1/6 224/1/6 225/1/6
f 222/1/6 223/1/6 225/1/6
f 225/1/6 224/1/6 226/1/6
