# MagicaVoxel @ Ephtracy

# group
o 

# material
mtllib Couch.vox.mtl
usemtl palette

# normals
vn -1 0 0
vn 1 0 0
vn 0 0 1
vn 0 0 -1
vn 0 -1 0
vn 0 1 0

# texcoords
vt 0.0605469 0.5
vt 0.810547 0.5
vt 0.849609 0.5

# verts
v -2 0 4
v -2 0 3.5
v -2 0 -3.5
v -2 0 -4
v -2 0.3 4
v -2 0.3 3.5
v -2 0.3 -3.5
v -2 0.3 -4
v -2 2.2 4
v -2 2.2 3.3
v -2 2.2 0.3
v -2 2.2 0
v -2 2.2 -3.3
v -2 2.2 -4
v -2 2.4 3.3
v -2 2.4 0.3
v -2 2.4 0
v -2 2.4 -3.3
v 1.5 0 4
v 1.5 0 3.5
v 1.5 0 -3.5
v 1.5 0 -4
v 1.5 0.3 4
v 1.5 0.3 3.5
v 1.5 0.3 -3.5
v 1.5 0.3 -4
v -1.5 0 4
v -1.5 0 3.5
v -1.5 0 -3.5
v -1.5 0 -4
v -1.5 0.3 4
v -1.5 0.3 3.5
v -1.5 0.3 -3.5
v -1.5 0.3 -4
v -0.8 1.4 3.3
v -0.8 1.4 -3.3
v -0.8 2.2 3.3
v -0.8 2.2 0.3
v -0.8 2.2 0
v -0.8 2.2 -3.3
v -0.8 2.4 3.3
v -0.8 2.4 0.3
v -0.8 2.4 0
v -0.8 2.4 -3.3
v 1.9 1.1 3.3
v 1.9 1.1 -3.3
v 1.9 1.4 3.3
v 1.9 1.4 -3.3
v 2 0 4
v 2 0 3.5
v 2 0 -3.5
v 2 0 -4
v 2 0.3 4
v 2 0.3 3.5
v 2 0.3 -3.5
v 2 0.3 -4
v 2 1.1 3.3
v 2 1.1 -3.3
v 2 2.2 4
v 2 2.2 3.3
v 2 2.2 -3.3
v 2 2.2 -4
v -2 0 4
v -2 0.3 4
v -2 2.2 4
v -1.5 0 4
v -1.5 0.3 4
v 1.5 0 4
v 1.5 0.3 4
v 2 0 4
v 2 0.3 4
v 2 2.2 4
v -2 2.2 3.3
v -2 2.4 3.3
v -0.8 2.2 3.3
v -0.8 2.4 3.3
v -2 2.2 0
v -2 2.4 0
v -0.8 2.2 0
v -0.8 2.4 0
v -0.8 1.4 -3.3
v -0.8 2.2 -3.3
v -0.7 1.4 -3.3
v 1.9 1.1 -3.3
v 1.9 1.4 -3.3
v 2 1.1 -3.3
v 2 2.2 -3.3
v -2 0 -3.5
v -2 0.3 -3.5
v -1.5 0 -3.5
v -1.5 0.3 -3.5
v 1.5 0 -3.5
v 1.5 0.3 -3.5
v 2 0 -3.5
v 2 0.3 -3.5
v -2 0 3.5
v -2 0.3 3.5
v -1.5 0 3.5
v -1.5 0.3 3.5
v 1.5 0 3.5
v 1.5 0.3 3.5
v 2 0 3.5
v 2 0.3 3.5
v -0.8 1.4 3.3
v -0.8 2.2 3.3
v -0.7 1.4 3.3
v 1.9 1.1 3.3
v 1.9 1.4 3.3
v 2 1.1 3.3
v 2 2.2 3.3
v -2 2.2 0.3
v -2 2.4 0.3
v -0.8 2.2 0.3
v -0.8 2.4 0.3
v -2 2.2 -3.3
v -2 2.4 -3.3
v -0.8 2.2 -3.3
v -0.8 2.4 -3.3
v -2 0 -4
v -2 0.3 -4
v -2 2.2 -4
v -1.5 0 -4
v -1.5 0.3 -4
v 1.5 0 -4
v 1.5 0.3 -4
v 2 0 -4
v 2 0.3 -4
v 2 2.2 -4
v -2 0 4
v -1.5 0 4
v 1.5 0 4
v 2 0 4
v -2 0 3.5
v -1.5 0 3.5
v 1.5 0 3.5
v 2 0 3.5
v -2 0 -3.5
v -1.5 0 -3.5
v 1.5 0 -3.5
v 2 0 -3.5
v -2 0 -4
v -1.5 0 -4
v 1.5 0 -4
v 2 0 -4
v -1.5 0.3 4
v 1.5 0.3 4
v -2 0.3 3.5
v -1.5 0.3 3.5
v 1.5 0.3 3.5
v 2 0.3 3.5
v -2 0.3 -3.5
v -1.5 0.3 -3.5
v 1.5 0.3 -3.5
v 2 0.3 -3.5
v -1.5 0.3 -4
v 1.5 0.3 -4
v 1.9 1.1 3.3
v 2 1.1 3.3
v 1.9 1.1 -3.3
v 2 1.1 -3.3
v -0.8 1.4 3.3
v -0.7 1.4 3.3
v 1.9 1.4 3.3
v -0.8 1.4 -3.3
v -0.7 1.4 -3.3
v 1.9 1.4 -3.3
v -2 2.2 4
v 2 2.2 4
v -2 2.2 3.3
v -0.8 2.2 3.3
v 2 2.2 3.3
v -2 2.2 0.3
v -0.8 2.2 0.3
v -2 2.2 0
v -0.8 2.2 0
v -2 2.2 -3.3
v -0.8 2.2 -3.3
v 2 2.2 -3.3
v -2 2.2 -4
v 2 2.2 -4
v -2 2.4 3.3
v -0.8 2.4 3.3
v -2 2.4 0.3
v -0.8 2.4 0.3
v -2 2.4 0
v -0.8 2.4 0
v -2 2.4 -3.3
v -0.8 2.4 -3.3

# faces
f 5/1/1 2/1/1 1/1/1
f 6/1/1 2/1/1 5/1/1
f 7/1/1 4/1/1 3/1/1
f 8/1/1 4/1/1 7/1/1
f 9/3/1 6/3/1 5/3/1
f 9/3/1 7/3/1 6/3/1
f 9/3/1 8/3/1 7/3/1
f 10/3/1 8/3/1 9/3/1
f 11/3/1 8/3/1 10/3/1
f 12/3/1 8/3/1 11/3/1
f 13/3/1 8/3/1 12/3/1
f 14/3/1 8/3/1 13/3/1
f 15/3/1 11/3/1 10/3/1
f 16/3/1 11/3/1 15/3/1
f 17/3/1 13/3/1 12/3/1
f 18/3/1 13/3/1 17/3/1
f 23/1/1 20/1/1 19/1/1
f 24/1/1 20/1/1 23/1/1
f 25/1/1 22/1/1 21/1/1
f 26/1/1 22/1/1 25/1/1
f 27/1/2 28/1/2 31/1/2
f 31/1/2 28/1/2 32/1/2
f 29/1/2 30/1/2 33/1/2
f 33/1/2 30/1/2 34/1/2
f 35/3/2 36/3/2 37/3/2
f 37/3/2 36/3/2 38/3/2
f 38/3/2 36/3/2 39/3/2
f 39/3/2 36/3/2 40/3/2
f 37/3/2 38/3/2 41/3/2
f 41/3/2 38/3/2 42/3/2
f 39/3/2 40/3/2 43/3/2
f 43/3/2 40/3/2 44/3/2
f 45/2/2 46/2/2 47/2/2
f 47/2/2 46/2/2 48/2/2
f 49/1/2 50/1/2 53/1/2
f 53/1/2 50/1/2 54/1/2
f 51/1/2 52/1/2 55/1/2
f 55/1/2 52/1/2 56/1/2
f 53/3/2 54/3/2 57/3/2
f 54/3/2 55/3/2 57/3/2
f 55/3/2 56/3/2 57/3/2
f 57/3/2 56/3/2 58/3/2
f 53/3/2 57/3/2 59/3/2
f 59/3/2 57/3/2 60/3/2
f 58/3/2 56/3/2 61/3/2
f 61/3/2 56/3/2 62/3/2
f 66/1/3 64/1/3 63/1/3
f 67/3/3 65/3/3 64/3/3
f 67/1/3 64/1/3 66/1/3
f 69/3/3 65/3/3 67/3/3
f 70/1/3 69/1/3 68/1/3
f 71/3/3 65/3/3 69/3/3
f 71/1/3 69/1/3 70/1/3
f 72/3/3 65/3/3 71/3/3
f 75/3/3 74/3/3 73/3/3
f 76/3/3 74/3/3 75/3/3
f 79/3/3 78/3/3 77/3/3
f 80/3/3 78/3/3 79/3/3
f 83/3/3 82/3/3 81/3/3
f 85/3/3 82/3/3 83/3/3
f 86/3/3 85/3/3 84/3/3
f 87/3/3 82/3/3 85/3/3
f 87/3/3 85/3/3 86/3/3
f 90/1/3 89/1/3 88/1/3
f 91/1/3 89/1/3 90/1/3
f 94/1/3 93/1/3 92/1/3
f 95/1/3 93/1/3 94/1/3
f 96/1/4 97/1/4 98/1/4
f 98/1/4 97/1/4 99/1/4
f 100/1/4 101/1/4 102/1/4
f 102/1/4 101/1/4 103/1/4
f 104/3/4 105/3/4 106/3/4
f 106/3/4 105/3/4 108/3/4
f 107/3/4 108/3/4 109/3/4
f 108/3/4 105/3/4 110/3/4
f 109/3/4 108/3/4 110/3/4
f 111/3/4 112/3/4 113/3/4
f 113/3/4 112/3/4 114/3/4
f 115/3/4 116/3/4 117/3/4
f 117/3/4 116/3/4 118/3/4
f 119/1/4 120/1/4 122/1/4
f 120/3/4 121/3/4 123/3/4
f 122/1/4 120/1/4 123/1/4
f 123/3/4 121/3/4 125/3/4
f 124/1/4 125/1/4 126/1/4
f 125/3/4 121/3/4 127/3/4
f 126/1/4 125/1/4 127/1/4
f 127/3/4 121/3/4 128/3/4
f 133/1/5 130/1/5 129/1/5
f 134/1/5 130/1/5 133/1/5
f 135/1/5 132/1/5 131/1/5
f 136/1/5 132/1/5 135/1/5
f 141/1/5 138/1/5 137/1/5
f 142/1/5 138/1/5 141/1/5
f 143/1/5 140/1/5 139/1/5
f 144/1/5 140/1/5 143/1/5
f 148/3/5 146/3/5 145/3/5
f 149/3/5 146/3/5 148/3/5
f 151/3/5 148/3/5 147/3/5
f 151/3/5 150/3/5 149/3/5
f 151/3/5 149/3/5 148/3/5
f 152/3/5 150/3/5 151/3/5
f 153/3/5 150/3/5 152/3/5
f 154/3/5 150/3/5 153/3/5
f 155/3/5 153/3/5 152/3/5
f 156/3/5 153/3/5 155/3/5
f 157/3/6 158/3/6 159/3/6
f 159/3/6 158/3/6 160/3/6
f 161/3/6 162/3/6 164/3/6
f 162/2/6 163/2/6 165/2/6
f 164/3/6 162/3/6 165/3/6
f 165/2/6 163/2/6 166/2/6
f 167/3/6 168/3/6 169/3/6
f 169/3/6 168/3/6 170/3/6
f 170/3/6 168/3/6 171/3/6
f 172/3/6 173/3/6 174/3/6
f 174/3/6 173/3/6 175/3/6
f 176/3/6 177/3/6 179/3/6
f 177/3/6 178/3/6 179/3/6
f 179/3/6 178/3/6 180/3/6
f 181/3/6 182/3/6 183/3/6
f 183/3/6 182/3/6 184/3/6
f 185/3/6 186/3/6 187/3/6
f 187/3/6 186/3/6 188/3/6
