# MagicaVoxel @ Ephtracy

# group
o 

# material
mtllib CounterTop.vox.mtl
usemtl palette

# normals
vn -1 0 0
vn 1 0 0
vn 0 0 1
vn 0 0 -1
vn 0 -1 0
vn 0 1 0

# texcoords
vt 0.00585938 0.5
vt 0.166016 0.5
vt 0.208984 0.5
vt 0.751953 0.5
vt 0.962891 0.5
vt 0.978516 0.5

# verts
v -2 0 1.2
v -2 0 1
v -2 0 -1.8
v -2 0 -1.9
v -2 0.2 1
v -2 0.2 -1.8
v -2 2.1 1.2
v -2 2.1 -1.9
v -1.9 2.1 -1.5
v -1.9 2.1 -1.9
v -1.9 2.5 -1.5
v -1.9 2.5 -1.9
v -1.8 0 1
v -1.8 0 -1.5
v -1.8 0.2 1
v -1.8 0.2 -1.5
v -0.0999999 1.6 0.6
v -0.0999999 1.6 -0.9
v -0.0999999 1.8 0.6
v -0.0999999 1.8 -0.9
v 0.2 1.4 -0.1
v 0.2 1.4 -0.8
v 0.2 1.5 -0.1
v 0.2 1.5 -0.8
v 0.7 1.4 0.4
v 0.7 1.4 -0.1
v 0.7 1.5 -0.1
v 0.7 1.5 -0.3
v 0.7 1.6 0.4
v 0.7 1.6 -0.3
v 0.9 1.6 -0.6
v 0.9 1.6 -0.7
v 0.9 1.8 -0.6
v 0.9 1.8 -0.7
v 1.1 1.4 -0.5
v 1.1 1.4 -0.9
v 1.1 1.6 -0.6
v 1.1 1.6 -0.7
v 1.1 1.7 -0.6
v 1.1 1.7 -0.7
v 1.1 1.8 -0.5
v 1.1 1.8 -0.9
v 1.4 1.4 -0.6
v 1.4 1.4 -0.8
v 1.4 1.8 -0.6
v 1.4 1.8 -0.8
v 1.6 1.4 0.6
v 1.6 1.4 -0.9
v 1.6 1.8 0.6
v 1.6 1.8 -0.9
v 1.7 0 0.8
v 1.7 0 -1.1
v 1.7 0.7 0.8
v 1.7 0.7 -1.1
v 1.8 0 1.2
v 1.8 0 1.1
v 1.8 0 -1.8
v 1.8 0 -1.9
v 1.8 0.2 -1.5
v 1.8 0.2 -1.8
v 1.8 0.4 -1.5
v 1.8 0.4 -1.8
v 1.8 1.3 -1.8
v 1.8 1.3 -1.9
v 1.8 1.6 1.2
v 1.8 1.6 1.1
v -1.8 0 1.2
v -1.8 0 1.1
v -1.8 0 -1.8
v -1.8 0 -1.9
v -1.8 0.2 -1.5
v -1.8 0.2 -1.8
v -1.8 0.4 -1.5
v -1.8 0.4 -1.8
v -1.8 1.3 -1.8
v -1.8 1.3 -1.9
v -1.8 1.6 1.2
v -1.8 1.6 1.1
v -1.7 0 0.8
v -1.7 0 -1.1
v -1.7 0.7 0.8
v -1.7 0.7 -1.1
v -1.6 1.6 0.6
v -1.6 1.6 -0.9
v -1.6 1.8 0.6
v -1.6 1.8 -0.9
v 0.1 1.4 0.6
v 0.1 1.4 -0.9
v 0.1 1.8 0.6
v 0.1 1.8 -0.9
v 0.9 1.4 -0.3
v 0.9 1.4 -0.8
v 0.9 1.5 -0.3
v 0.9 1.5 -0.8
v 1 1.7 -0.6
v 1 1.7 -0.7
v 1 1.8 -0.6
v 1 1.8 -0.7
v 1.2 1.4 -0.6
v 1.2 1.4 -0.8
v 1.2 1.8 -0.6
v 1.2 1.8 -0.8
v 1.5 1.4 0.4
v 1.5 1.4 -0.3
v 1.5 1.4 -0.5
v 1.5 1.4 -0.9
v 1.5 1.6 0.4
v 1.5 1.6 -0.3
v 1.5 1.8 -0.5
v 1.5 1.8 -0.9
v 1.8 0 1
v 1.8 0 -1.5
v 1.8 0.2 1
v 1.8 0.2 -1.5
v 2 0 1.2
v 2 0 1
v 2 0 -1.8
v 2 0 -1.9
v 2 0.2 1
v 2 0.2 -1.8
v 2 2.1 1.2
v 2 2.1 -1.5
v 2 2.1 -1.9
v 2 2.5 -1.5
v 2 2.5 -1.9
v -2 0 1.2
v -2 2.1 1.2
v -1.8 0 1.2
v -1.8 1.6 1.2
v 1.8 0 1.2
v 1.8 1.6 1.2
v 2 0 1.2
v 2 2.1 1.2
v -1.8 0 1.1
v -1.8 1.6 1.1
v -1.7 0.1 1.1
v -1.7 1.5 1.1
v -0.6 0.1 1.1
v -0.6 1.5 1.1
v -0.5 0.1 1.1
v -0.5 1.5 1.1
v 0.5 0.1 1.1
v 0.5 1.5 1.1
v 0.6 0.1 1.1
v 0.6 1.5 1.1
v 1.7 0.1 1.1
v 1.7 1.5 1.1
v 1.8 0 1.1
v 1.8 1.6 1.1
v 0.7 1.4 0.4
v 0.7 1.6 0.4
v 1.5 1.4 0.4
v 1.5 1.6 0.4
v 0.2 1.4 -0.1
v 0.2 1.5 -0.1
v 0.7 1.4 -0.1
v 0.7 1.5 -0.1
v 1.1 1.4 -0.5
v 1.1 1.8 -0.5
v 1.5 1.4 -0.5
v 1.5 1.8 -0.5
v 0.9 1.6 -0.6
v 0.9 1.8 -0.6
v 1 1.7 -0.6
v 1 1.8 -0.6
v 1.1 1.6 -0.6
v 1.1 1.7 -0.6
v 1.2 1.4 -0.8
v 1.2 1.8 -0.8
v 1.4 1.4 -0.8
v 1.4 1.8 -0.8
v -1.6 1.6 -0.9
v -1.6 1.8 -0.9
v -0.0999999 1.6 -0.9
v -0.0999999 1.8 -0.9
v 0.1 1.4 -0.9
v 0.1 1.8 -0.9
v 1.1 1.4 -0.9
v 1.1 1.8 -0.9
v 1.5 1.4 -0.9
v 1.5 1.8 -0.9
v 1.6 1.4 -0.9
v 1.6 1.8 -0.9
v -1.7 0 -1.1
v -1.7 0.7 -1.1
v 1.7 0 -1.1
v 1.7 0.7 -1.1
v -1.9 2.1 -1.5
v -1.9 2.5 -1.5
v 2 2.1 -1.5
v 2 2.5 -1.5
v -2 0 -1.8
v -2 0.2 -1.8
v -1.8 0 -1.8
v -1.8 0.2 -1.8
v 1.8 0 -1.8
v 1.8 0.2 -1.8
v 2 0 -1.8
v 2 0.2 -1.8
v -2 0 1
v -2 0.2 1
v -1.8 0 1
v -1.8 0.2 1
v 1.8 0 1
v 1.8 0.2 1
v 2 0 1
v 2 0.2 1
v -1.7 0 0.8
v -1.7 0.7 0.8
v 1.7 0 0.8
v 1.7 0.7 0.8
v -1.6 1.6 0.6
v -1.6 1.8 0.6
v -0.0999999 1.6 0.6
v -0.0999999 1.8 0.6
v 0.1 1.4 0.6
v 0.1 1.8 0.6
v 1.6 1.4 0.6
v 1.6 1.8 0.6
v 0.7 1.5 -0.3
v 0.7 1.6 -0.3
v 0.9 1.4 -0.3
v 0.9 1.5 -0.3
v 1.5 1.4 -0.3
v 1.5 1.6 -0.3
v 1.2 1.4 -0.6
v 1.2 1.8 -0.6
v 1.4 1.4 -0.6
v 1.4 1.8 -0.6
v 0.9 1.6 -0.7
v 0.9 1.8 -0.7
v 1 1.7 -0.7
v 1 1.8 -0.7
v 1.1 1.6 -0.7
v 1.1 1.7 -0.7
v 0.2 1.4 -0.8
v 0.2 1.5 -0.8
v 0.9 1.4 -0.8
v 0.9 1.5 -0.8
v -1.8 0 -1.5
v -1.8 0.2 -1.5
v -1.8 0.4 -1.5
v 1.8 0 -1.5
v 1.8 0.2 -1.5
v 1.8 0.4 -1.5
v -1.8 0.4 -1.8
v -1.8 1.3 -1.8
v 1.8 0.4 -1.8
v 1.8 1.3 -1.8
v -2 0 -1.9
v -2 2.1 -1.9
v -1.9 2.1 -1.9
v -1.9 2.5 -1.9
v -1.8 0 -1.9
v -1.8 1.3 -1.9
v 1.8 0 -1.9
v 1.8 1.3 -1.9
v 2 0 -1.9
v 2 2.1 -1.9
v 2 2.5 -1.9
v -2 0 1.2
v -1.8 0 1.2
v 1.8 0 1.2
v 2 0 1.2
v -1.8 0 1.1
v 1.8 0 1.1
v -2 0 1
v -1.8 0 1
v 1.8 0 1
v 2 0 1
v -1.7 0 0.8
v 1.7 0 0.8
v -1.7 0 -1.1
v 1.7 0 -1.1
v -1.8 0 -1.5
v 1.8 0 -1.5
v -2 0 -1.8
v -1.8 0 -1.8
v 1.8 0 -1.8
v 2 0 -1.8
v -2 0 -1.9
v -1.8 0 -1.9
v 1.8 0 -1.9
v 2 0 -1.9
v -2 0.2 1
v -1.8 0.2 1
v 1.8 0.2 1
v 2 0.2 1
v -1.8 0.2 -1.5
v 1.8 0.2 -1.5
v -2 0.2 -1.8
v -1.8 0.2 -1.8
v 1.8 0.2 -1.8
v 2 0.2 -1.8
v -1.8 0.4 -1.5
v 1.8 0.4 -1.5
v -1.8 0.4 -1.8
v 1.8 0.4 -1.8
v -1.7 0.7 0.8
v 1.7 0.7 0.8
v -1.7 0.7 -1.1
v 1.7 0.7 -1.1
v -1.8 1.3 -1.8
v 1.8 1.3 -1.8
v -1.8 1.3 -1.9
v 1.8 1.3 -1.9
v -1.8 1.6 1.2
v 1.8 1.6 1.2
v -1.8 1.6 1.1
v 1.8 1.6 1.1
v 0.9 1.6 -0.6
v 1.1 1.6 -0.6
v 0.9 1.6 -0.7
v 1.1 1.6 -0.7
v -1.6 1.8 0.6
v -0.0999999 1.8 0.6
v 0.1 1.8 0.6
v 1.6 1.8 0.6
v 1.1 1.8 -0.5
v 1.5 1.8 -0.5
v 0.9 1.8 -0.6
v 1 1.8 -0.6
v 1.2 1.8 -0.6
v 1.4 1.8 -0.6
v 0.9 1.8 -0.7
v 1 1.8 -0.7
v 1.2 1.8 -0.8
v 1.4 1.8 -0.8
v -1.6 1.8 -0.9
v -0.0999999 1.8 -0.9
v 0.1 1.8 -0.9
v 1.1 1.8 -0.9
v 1.5 1.8 -0.9
v 1.6 1.8 -0.9
v 0.1 1.4 0.6
v 1.6 1.4 0.6
v 0.7 1.4 0.4
v 1.5 1.4 0.4
v 0.2 1.4 -0.1
v 0.7 1.4 -0.1
v 0.9 1.4 -0.3
v 1.5 1.4 -0.3
v 1.1 1.4 -0.5
v 1.5 1.4 -0.5
v 1.2 1.4 -0.6
v 1.4 1.4 -0.6
v 0.2 1.4 -0.8
v 0.9 1.4 -0.8
v 1.2 1.4 -0.8
v 1.4 1.4 -0.8
v 0.1 1.4 -0.9
v 1.1 1.4 -0.9
v 1.5 1.4 -0.9
v 1.6 1.4 -0.9
v 0.2 1.5 -0.1
v 0.7 1.5 -0.1
v 0.7 1.5 -0.3
v 0.9 1.5 -0.3
v 0.2 1.5 -0.8
v 0.9 1.5 -0.8
v -1.6 1.6 0.6
v -0.0999999 1.6 0.6
v 0.7 1.6 0.4
v 1.5 1.6 0.4
v 0.7 1.6 -0.3
v 1.5 1.6 -0.3
v -1.6 1.6 -0.9
v -0.0999999 1.6 -0.9
v 1 1.7 -0.6
v 1.1 1.7 -0.6
v 1 1.7 -0.7
v 1.1 1.7 -0.7
v -2 2.1 1.2
v 2 2.1 1.2
v -1.8 2.1 0.9
v 1.8 2.1 0.9
v -1.7 2.1 0.8
v 1.7 2.1 0.8
v -1.7 2.1 -1
v 1.7 2.1 -1
v -1.8 2.1 -1.1
v 1.8 2.1 -1.1
v -1.9 2.1 -1.5
v 2 2.1 -1.5
v -2 2.1 -1.9
v -1.9 2.1 -1.9
v -1.9 2.5 -1.5
v 2 2.5 -1.5
v -1.9 2.5 -1.9
v 2 2.5 -1.9

# faces
f 5/5/1 2/5/1 1/5/1
f 6/5/1 4/5/1 3/5/1
f 7/5/1 5/5/1 1/5/1
f 7/5/1 6/5/1 5/5/1
f 8/5/1 4/5/1 6/5/1
f 8/5/1 6/5/1 7/5/1
f 11/1/1 10/1/1 9/1/1
f 12/1/1 10/1/1 11/1/1
f 15/5/1 14/5/1 13/5/1
f 16/5/1 14/5/1 15/5/1
f 19/6/1 18/6/1 17/6/1
f 20/6/1 18/6/1 19/6/1
f 23/2/1 22/2/1 21/2/1
f 24/2/1 22/2/1 23/2/1
f 27/2/1 26/2/1 25/2/1
f 29/2/1 27/2/1 25/2/1
f 29/2/1 28/2/1 27/2/1
f 30/2/1 28/2/1 29/2/1
f 33/2/1 32/2/1 31/2/1
f 34/2/1 32/2/1 33/2/1
f 37/2/1 36/2/1 35/2/1
f 38/2/1 36/2/1 37/2/1
f 39/2/1 37/2/1 35/2/1
f 40/2/1 36/2/1 38/2/1
f 41/2/1 39/2/1 35/2/1
f 41/2/1 40/2/1 39/2/1
f 42/2/1 36/2/1 40/2/1
f 42/2/1 40/2/1 41/2/1
f 45/2/1 44/2/1 43/2/1
f 46/2/1 44/2/1 45/2/1
f 49/6/1 48/6/1 47/6/1
f 50/6/1 48/6/1 49/6/1
f 53/5/1 52/5/1 51/5/1
f 54/5/1 52/5/1 53/5/1
f 60/5/1 58/5/1 57/5/1
f 61/5/1 60/5/1 59/5/1
f 62/5/1 58/5/1 60/5/1
f 62/5/1 60/5/1 61/5/1
f 63/5/1 58/5/1 62/5/1
f 64/5/1 58/5/1 63/5/1
f 65/5/1 56/5/1 55/5/1
f 66/5/1 56/5/1 65/5/1
f 69/5/2 70/5/2 72/5/2
f 71/5/2 72/5/2 73/5/2
f 72/5/2 70/5/2 74/5/2
f 73/5/2 72/5/2 74/5/2
f 74/5/2 70/5/2 75/5/2
f 75/5/2 70/5/2 76/5/2
f 67/5/2 68/5/2 77/5/2
f 77/5/2 68/5/2 78/5/2
f 79/5/2 80/5/2 81/5/2
f 81/5/2 80/5/2 82/5/2
f 83/6/2 84/6/2 85/6/2
f 85/6/2 84/6/2 86/6/2
f 87/6/2 88/6/2 89/6/2
f 89/6/2 88/6/2 90/6/2
f 91/2/2 92/2/2 93/2/2
f 93/2/2 92/2/2 94/2/2
f 95/2/2 96/2/2 97/2/2
f 97/2/2 96/2/2 98/2/2
f 99/2/2 100/2/2 101/2/2
f 101/2/2 100/2/2 102/2/2
f 103/2/2 104/2/2 107/2/2
f 107/2/2 104/2/2 108/2/2
f 105/2/2 106/2/2 109/2/2
f 109/2/2 106/2/2 110/2/2
f 111/5/2 112/5/2 113/5/2
f 113/5/2 112/5/2 114/5/2
f 115/5/2 116/5/2 119/5/2
f 117/5/2 118/5/2 120/5/2
f 115/5/2 119/5/2 121/5/2
f 119/5/2 120/5/2 121/5/2
f 121/5/2 120/5/2 122/5/2
f 120/5/2 118/5/2 123/5/2
f 122/5/2 120/5/2 123/5/2
f 122/1/2 123/1/2 124/1/2
f 124/1/2 123/1/2 125/1/2
f 128/5/3 127/5/3 126/5/3
f 129/5/3 127/5/3 128/5/3
f 131/5/3 127/5/3 129/5/3
f 132/5/3 131/5/3 130/5/3
f 133/5/3 127/5/3 131/5/3
f 133/5/3 131/5/3 132/5/3
f 136/5/3 135/5/3 134/5/3
f 137/5/3 135/5/3 136/5/3
f 138/5/3 136/5/3 134/5/3
f 138/3/3 137/3/3 136/3/3
f 139/5/3 135/5/3 137/5/3
f 139/3/3 137/3/3 138/3/3
f 140/5/3 138/5/3 134/5/3
f 140/5/3 139/5/3 138/5/3
f 141/5/3 135/5/3 139/5/3
f 141/5/3 139/5/3 140/5/3
f 142/5/3 140/5/3 134/5/3
f 142/3/3 141/3/3 140/3/3
f 143/5/3 135/5/3 141/5/3
f 143/3/3 141/3/3 142/3/3
f 144/5/3 142/5/3 134/5/3
f 144/5/3 143/5/3 142/5/3
f 145/5/3 135/5/3 143/5/3
f 145/5/3 143/5/3 144/5/3
f 146/5/3 144/5/3 134/5/3
f 146/3/3 145/3/3 144/3/3
f 147/5/3 135/5/3 145/5/3
f 147/3/3 145/3/3 146/3/3
f 148/5/3 146/5/3 134/5/3
f 148/5/3 147/5/3 146/5/3
f 149/5/3 135/5/3 147/5/3
f 149/5/3 147/5/3 148/5/3
f 152/2/3 151/2/3 150/2/3
f 153/2/3 151/2/3 152/2/3
f 156/2/3 155/2/3 154/2/3
f 157/2/3 155/2/3 156/2/3
f 160/2/3 159/2/3 158/2/3
f 161/2/3 159/2/3 160/2/3
f 164/2/3 163/2/3 162/2/3
f 165/2/3 163/2/3 164/2/3
f 166/2/3 164/2/3 162/2/3
f 167/2/3 164/2/3 166/2/3
f 170/2/3 169/2/3 168/2/3
f 171/2/3 169/2/3 170/2/3
f 174/6/3 173/6/3 172/6/3
f 175/6/3 173/6/3 174/6/3
f 178/6/3 177/6/3 176/6/3
f 179/6/3 177/6/3 178/6/3
f 182/6/3 181/6/3 180/6/3
f 183/6/3 181/6/3 182/6/3
f 186/5/3 185/5/3 184/5/3
f 187/5/3 185/5/3 186/5/3
f 190/1/3 189/1/3 188/1/3
f 191/1/3 189/1/3 190/1/3
f 194/5/3 193/5/3 192/5/3
f 195/5/3 193/5/3 194/5/3
f 198/5/3 197/5/3 196/5/3
f 199/5/3 197/5/3 198/5/3
f 200/5/4 201/5/4 202/5/4
f 202/5/4 201/5/4 203/5/4
f 204/5/4 205/5/4 206/5/4
f 206/5/4 205/5/4 207/5/4
f 208/5/4 209/5/4 210/5/4
f 210/5/4 209/5/4 211/5/4
f 212/6/4 213/6/4 214/6/4
f 214/6/4 213/6/4 215/6/4
f 216/6/4 217/6/4 218/6/4
f 218/6/4 217/6/4 219/6/4
f 220/2/4 221/2/4 223/2/4
f 222/2/4 223/2/4 224/2/4
f 223/2/4 221/2/4 225/2/4
f 224/2/4 223/2/4 225/2/4
f 226/2/4 227/2/4 228/2/4
f 228/2/4 227/2/4 229/2/4
f 230/2/4 231/2/4 232/2/4
f 232/2/4 231/2/4 233/2/4
f 230/2/4 232/2/4 234/2/4
f 234/2/4 232/2/4 235/2/4
f 236/2/4 237/2/4 238/2/4
f 238/2/4 237/2/4 239/2/4
f 240/5/4 241/5/4 243/5/4
f 241/5/4 242/5/4 243/5/4
f 243/5/4 242/5/4 244/5/4
f 244/5/4 242/5/4 245/5/4
f 246/5/4 247/5/4 248/5/4
f 248/5/4 247/5/4 249/5/4
f 250/5/4 251/5/4 252/5/4
f 250/5/4 252/5/4 254/5/4
f 254/5/4 252/5/4 255/5/4
f 255/5/4 252/5/4 257/5/4
f 256/5/4 257/5/4 258/5/4
f 252/1/4 253/1/4 259/1/4
f 258/5/4 257/5/4 259/5/4
f 257/5/4 252/5/4 259/5/4
f 259/1/4 253/1/4 260/1/4
f 265/5/5 262/5/5 261/5/5
f 266/5/5 264/5/5 263/5/5
f 267/5/5 265/5/5 261/5/5
f 267/5/5 266/5/5 265/5/5
f 268/5/5 266/5/5 267/5/5
f 269/5/5 264/5/5 266/5/5
f 269/5/5 266/5/5 268/5/5
f 270/5/5 264/5/5 269/5/5
f 271/5/5 269/5/5 268/5/5
f 272/5/5 269/5/5 271/5/5
f 273/5/5 271/5/5 268/5/5
f 274/5/5 269/5/5 272/5/5
f 275/5/5 273/5/5 268/5/5
f 275/5/5 274/5/5 273/5/5
f 276/5/5 269/5/5 274/5/5
f 276/5/5 274/5/5 275/5/5
f 281/5/5 278/5/5 277/5/5
f 282/5/5 278/5/5 281/5/5
f 283/5/5 280/5/5 279/5/5
f 284/5/5 280/5/5 283/5/5
f 289/5/5 286/5/5 285/5/5
f 290/5/5 288/5/5 287/5/5
f 291/5/5 289/5/5 285/5/5
f 292/5/5 289/5/5 291/5/5
f 293/5/5 288/5/5 290/5/5
f 294/5/5 288/5/5 293/5/5
f 297/5/5 296/5/5 295/5/5
f 298/5/5 296/5/5 297/5/5
f 301/6/5 300/6/5 299/6/5
f 302/6/5 300/6/5 301/6/5
f 305/5/5 304/5/5 303/5/5
f 306/5/5 304/5/5 305/5/5
f 309/5/5 308/5/5 307/5/5
f 310/5/5 308/5/5 309/5/5
f 313/2/5 312/2/5 311/2/5
f 314/2/5 312/2/5 313/2/5
f 319/5/5 318/5/5 317/5/5
f 320/5/5 318/5/5 319/5/5
f 321/5/5 319/5/5 317/5/5
f 322/5/5 319/5/5 321/5/5
f 325/5/5 321/5/5 317/5/5
f 326/5/5 319/5/5 322/5/5
f 327/5/5 324/5/5 323/5/5
f 328/5/5 324/5/5 327/5/5
f 329/5/5 316/5/5 315/5/5
f 330/5/5 316/5/5 329/5/5
f 331/5/5 326/5/5 325/5/5
f 331/5/5 325/5/5 317/5/5
f 332/5/5 319/5/5 326/5/5
f 332/5/5 326/5/5 331/5/5
f 333/5/5 318/5/5 320/5/5
f 334/5/5 318/5/5 333/5/5
f 335/6/6 336/6/6 337/6/6
f 337/6/6 336/6/6 338/6/6
f 335/6/6 337/6/6 339/6/6
f 339/6/6 337/6/6 340/6/6
f 338/6/6 336/6/6 342/6/6
f 341/6/6 342/6/6 343/6/6
f 342/6/6 336/6/6 344/6/6
f 343/6/6 342/6/6 344/6/6
f 335/6/6 339/6/6 347/6/6
f 341/6/6 343/6/6 348/6/6
f 345/6/6 346/6/6 349/6/6
f 349/6/6 346/6/6 350/6/6
f 347/6/6 348/6/6 351/6/6
f 335/6/6 347/6/6 351/6/6
f 348/6/6 343/6/6 352/6/6
f 351/6/6 348/6/6 352/6/6
f 344/6/6 336/6/6 353/6/6
f 353/6/6 336/6/6 354/6/6
f 355/2/6 356/2/6 357/2/6
f 355/2/6 357/2/6 359/2/6
f 357/2/6 358/2/6 359/2/6
f 359/2/6 358/2/6 360/2/6
f 363/2/6 364/2/6 365/2/6
f 365/2/6 364/2/6 366/2/6
f 361/4/6 362/4/6 367/4/6
f 367/4/6 362/4/6 368/4/6
f 369/2/6 370/2/6 371/2/6
f 371/2/6 370/2/6 372/2/6
f 373/5/6 374/5/6 375/5/6
f 375/5/6 374/5/6 376/5/6
f 375/6/6 376/6/6 377/6/6
f 377/6/6 376/6/6 378/6/6
f 375/6/6 377/6/6 379/6/6
f 377/5/6 378/5/6 379/5/6
f 378/6/6 376/6/6 380/6/6
f 379/5/6 378/5/6 380/5/6
f 373/5/6 375/5/6 381/5/6
f 375/6/6 379/6/6 381/6/6
f 379/6/6 380/6/6 381/6/6
f 380/6/6 376/6/6 382/6/6
f 381/6/6 380/6/6 382/6/6
f 376/5/6 374/5/6 382/5/6
f 373/5/6 381/5/6 383/5/6
f 381/5/6 382/5/6 383/5/6
f 382/5/6 374/5/6 384/5/6
f 383/5/6 382/5/6 384/5/6
f 373/5/6 383/5/6 385/5/6
f 385/5/6 383/5/6 386/5/6
f 387/1/6 388/1/6 389/1/6
f 389/1/6 388/1/6 390/1/6
