# MagicaVoxel @ Ephtracy

# group
o 

# material
mtllib Dryer.vox.mtl
usemtl palette

# normals
vn -1 0 0
vn 1 0 0
vn 0 0 1
vn 0 0 -1
vn 0 -1 0
vn 0 1 0

# texcoords
vt 0.0332031 0.5
vt 0.271484 0.5
vt 0.302734 0.5
vt 0.373047 0.5
vt 0.396484 0.5
vt 0.958984 0.5
vt 0.966797 0.5
vt 0.970703 0.5
vt 0.982422 0.5

# verts
v -2 0.5 1.4
v -2 0.5 -2
v -2 0.6 -1.2
v -2 0.6 -1.3
v -2 0.7 -1.2
v -2 0.7 -1.3
v -2 1.2 -0.6
v -2 1.2 -0.8
v -2 1.3 -0.6
v -2 1.3 -0.8
v -2 1.9 0.6
v -2 1.9 0.5
v -2 2 0.6
v -2 2 0.5
v -2 3 1.4
v -2 3 -1.3
v -2 3.5 -1.3
v -2 3.5 -2
v -1.9 0 1.1
v -1.9 0 1
v -1.9 0 -2
v -1.9 0.1 -0.9
v -1.9 0.1 -1.1
v -1.9 0.1 -1.6
v -1.9 0.1 -1.8
v -1.9 0.2 1.1
v -1.9 0.2 1
v -1.9 0.2 -0.9
v -1.9 0.2 -1.1
v -1.9 0.3 -1.6
v -1.9 0.3 -1.8
v -1.9 0.5 1.1
v -1.9 0.5 -2
v -1.7 3.1 -1.2
v -1.7 3.1 -1.3
v -1.7 3.3 -1.2
v -1.7 3.3 -1.3
v -0.4 3.1 -1.2
v -0.4 3.1 -1.3
v -0.4 3.3 -1.2
v -0.4 3.3 -1.3
v -0.0999999 2.9 -0.2
v -0.0999999 2.9 -1.1
v -0.0999999 3 -0.2
v -0.0999999 3 -1.1
v 0.8 3.1 -1.2
v 0.8 3.1 -1.3
v 0.8 3.3 -1.2
v 0.8 3.3 -1.3
v 1.4 1.2 1.6
v 1.4 1.2 1.3
v 1.4 1.4 1.5
v 1.4 1.4 1.3
v 1.4 2.3 1.5
v 1.4 2.3 1.3
v 1.4 2.5 1.6
v 1.4 2.5 1.3
v 1.8 0.7 1.4
v 1.8 0.7 1.3
v 1.8 2.8 1.4
v 1.8 2.8 1.3
v -1.8 0.7 1.4
v -1.8 0.7 1.3
v -1.8 0.8 1.3
v -1.8 0.9 1.3
v -1.8 1 1.3
v -1.8 1.2 1.3
v -1.8 1.3 1.3
v -1.8 2.8 1.4
v -1.8 2.8 1.3
v -1.8 2.9 -0.2
v -1.8 2.9 -0.4
v -1.8 3 -0.2
v -1.8 3 -0.4
v -0.7 3.1 -1.2
v -0.7 3.1 -1.3
v -0.7 3.3 -1.2
v -0.7 3.3 -1.3
v -0.2 2.9 -0.4
v -0.2 2.9 -1.1
v -0.2 3 -0.4
v -0.2 3 -1.1
v 0.5 3.1 -1.2
v 0.5 3.1 -1.3
v 0.5 3.3 -1.2
v 0.5 3.3 -1.3
v 1.6 1.2 1.6
v 1.6 1.2 1.3
v 1.6 1.4 1.5
v 1.6 1.4 1.3
v 1.6 2.3 1.5
v 1.6 2.3 1.3
v 1.6 2.5 1.6
v 1.6 2.5 1.3
v 1.7 3.1 -1.2
v 1.7 3.1 -1.3
v 1.7 3.3 -1.2
v 1.7 3.3 -1.3
v 1.9 0 1.1
v 1.9 0 1
v 1.9 0 -1.6
v 1.9 0 -2
v 1.9 0.2 -1.6
v 1.9 0.2 -2
v 1.9 0.3 1.1
v 1.9 0.3 1
v 1.9 0.5 1.1
v 1.9 0.5 -2
v 2 0.5 1.4
v 2 0.5 -2
v 2 0.6 -0.4
v 2 0.6 -0.7
v 2 0.6 -1.3
v 2 0.6 -1.4
v 2 0.6 -1.5
v 2 0.6 -1.6
v 2 0.7 -0.4
v 2 0.7 -0.7
v 2 0.7 -1.5
v 2 0.7 -1.6
v 2 0.8 -1.3
v 2 0.8 -1.4
v 2 1 0.3
v 2 1 0.2
v 2 1.1 0.3
v 2 1.1 0.2
v 2 1.6 0.6
v 2 1.6 0.5
v 2 1.7 0.6
v 2 1.7 0.5
v 2 3 1.4
v 2 3 -1.3
v 2 3.5 -1.3
v 2 3.5 -2
v 1.4 1.2 1.6
v 1.4 2.5 1.6
v 1.6 1.2 1.6
v 1.6 2.5 1.6
v -2 0.5 1.4
v -2 3 1.4
v -1.8 0.6 1.4
v -1.8 0.7 1.4
v -1.8 2.8 1.4
v -1.7 0.6 1.4
v -1.7 0.7 1.4
v 1.8 0.7 1.4
v 1.8 2.8 1.4
v 2 0.5 1.4
v 2 3 1.4
v -1.8 0.7 1.3
v -1.8 0.8 1.3
v -1.8 0.9 1.3
v -1.8 1 1.3
v -1.8 1.2 1.3
v -1.8 1.3 1.3
v -1.8 2.8 1.3
v -1.7 0.7 1.3
v -1.7 0.9 1.3
v -1.7 1 1.3
v -1.7 1.2 1.3
v -1.7 1.3 1.3
v -1.6 0.8 1.3
v -1.6 0.9 1.3
v -1.6 2.2 1.3
v -1.6 2.6 1.3
v -1.4 0.8 1.3
v -1.4 0.9 1.3
v -0.8 2.3 1.3
v -0.8 2.4 1.3
v -0.7 2.3 1.3
v -0.7 2.4 1.3
v -0.6 2.3 1.3
v -0.6 2.4 1.3
v -0.5 2.3 1.3
v -0.5 2.4 1.3
v -0.4 2.2 1.3
v -0.4 2.6 1.3
v 0.5 1.2 1.3
v 0.5 1.3 1.3
v 0.6 1.2 1.3
v 0.6 1.3 1.3
v 0.7 1.9 1.3
v 0.7 2 1.3
v 0.8 1.3 1.3
v 0.8 1.5 1.3
v 0.8 1.9 1.3
v 0.8 2 1.3
v 0.9 0.8 1.3
v 0.9 0.9 1.3
v 0.9 2.2 1.3
v 0.9 2.3 1.3
v 1 0.8 1.3
v 1 0.9 1.3
v 1 2.2 1.3
v 1 2.3 1.3
v 1.1 1.3 1.3
v 1.1 1.5 1.3
v 1.1 1.6 1.3
v 1.1 1.7 1.3
v 1.2 1.6 1.3
v 1.2 1.7 1.3
v 1.4 1.2 1.3
v 1.4 1.4 1.3
v 1.4 2.3 1.3
v 1.4 2.5 1.3
v 1.5 0.8 1.3
v 1.5 0.9 1.3
v 1.6 0.8 1.3
v 1.6 0.9 1.3
v 1.6 1.2 1.3
v 1.6 1.4 1.3
v 1.6 2.3 1.3
v 1.6 2.5 1.3
v 1.6 2.8 1.3
v 1.7 0.7 1.3
v 1.7 2.8 1.3
v 1.8 0.7 1.3
v 1.8 2.8 1.3
v -1.9 0 1.1
v -1.9 0.2 1.1
v -1.9 0.5 1.1
v -1.5 0 1.1
v -1.5 0.1 1.1
v -1.3 0 1.1
v -1.3 0.1 1.1
v -1.3 0.2 1.1
v -1.2 0 1.1
v -1.2 0.1 1.1
v 1.5 0 1.1
v 1.5 0.3 1.1
v 1.9 0 1.1
v 1.9 0.3 1.1
v 1.9 0.5 1.1
v -1.8 2.9 -0.4
v -1.8 3 -0.4
v -0.2 2.9 -0.4
v -0.2 3 -0.4
v -0.2 2.9 -1.1
v -0.2 3 -1.1
v -0.0999999 2.9 -1.1
v -0.0999999 3 -1.1
v -1.7 3.1 -1.2
v -1.7 3.3 -1.2
v -0.7 3.1 -1.2
v -0.7 3.3 -1.2
v -0.4 3.1 -1.2
v -0.4 3.3 -1.2
v 0.5 3.1 -1.2
v 0.5 3.3 -1.2
v 0.8 3.1 -1.2
v 0.8 3.3 -1.2
v 1.7 3.1 -1.2
v 1.7 3.3 -1.2
v -2 3 -1.3
v -2 3.5 -1.3
v -1.9 3 -1.3
v -1.9 3.4 -1.3
v -1.7 3.1 -1.3
v -1.7 3.3 -1.3
v -0.7 3.1 -1.3
v -0.7 3.3 -1.3
v -0.4 3.1 -1.3
v -0.4 3.3 -1.3
v 0.5 3.1 -1.3
v 0.5 3.3 -1.3
v 0.8 3.1 -1.3
v 0.8 3.3 -1.3
v 1.7 3.1 -1.3
v 1.7 3.3 -1.3
v 1.9 3 -1.3
v 1.9 3.4 -1.3
v 2 3 -1.3
v 2 3.5 -1.3
v 1.4 1.4 1.5
v 1.4 2.3 1.5
v 1.6 1.4 1.5
v 1.6 2.3 1.5
v -1.8 2.9 -0.2
v -1.8 3 -0.2
v -0.0999999 2.9 -0.2
v -0.0999999 3 -0.2
v -2 0.5 -2
v -2 3.5 -2
v -1.9 0 -2
v -1.9 0.5 -2
v 1.8 0 -2
v 1.8 0.2 -2
v 1.9 0 -2
v 1.9 0.2 -2
v 1.9 0.5 -2
v 2 0.5 -2
v 2 3.5 -2
v -1.9 0 1.1
v -1.5 0 1.1
v -1.3 0 1.1
v -1.2 0 1.1
v 1.5 0 1.1
v 1.9 0 1.1
v -1.9 0 1
v -1.5 0 1
v -1.3 0 1
v -1.2 0 1
v 1.5 0 1
v 1.9 0 1
v 1.8 0 -1.6
v 1.9 0 -1.6
v -1.9 0 -2
v 1.8 0 -2
v 1.9 0 -2
v -2 0.5 1.4
v 2 0.5 1.4
v -1.9 0.5 1.1
v 1.9 0.5 1.1
v -2 0.5 -2
v -1.9 0.5 -2
v 1.9 0.5 -2
v 2 0.5 -2
v 1.4 1.2 1.6
v 1.6 1.2 1.6
v 1.4 1.2 1.3
v 1.6 1.2 1.3
v 1.4 2.3 1.5
v 1.6 2.3 1.5
v 1.4 2.3 1.3
v 1.6 2.3 1.3
v -1.8 2.8 1.4
v 1.8 2.8 1.4
v -1.8 2.8 1.3
v 1.6 2.8 1.3
v 1.7 2.8 1.3
v 1.8 2.8 1.3
v -1.7 3.1 -1.2
v -0.7 3.1 -1.2
v -0.4 3.1 -1.2
v 0.5 3.1 -1.2
v 0.8 3.1 -1.2
v 1.7 3.1 -1.2
v -1.7 3.1 -1.3
v -0.7 3.1 -1.3
v -0.4 3.1 -1.3
v 0.5 3.1 -1.3
v 0.8 3.1 -1.3
v 1.7 3.1 -1.3
v -1.8 0.7 1.4
v -1.7 0.7 1.4
v 1.8 0.7 1.4
v -1.8 0.7 1.3
v -1.7 0.7 1.3
v 1.7 0.7 1.3
v 1.8 0.7 1.3
v 1.4 1.4 1.5
v 1.6 1.4 1.5
v 1.4 1.4 1.3
v 1.6 1.4 1.3
v 1.4 2.5 1.6
v 1.6 2.5 1.6
v 1.4 2.5 1.3
v 1.6 2.5 1.3
v -1.8 2.9 -0.2
v -0.0999999 2.9 -0.2
v -1.8 2.9 -0.4
v -0.2 2.9 -0.4
v -0.2 2.9 -1.1
v -0.0999999 2.9 -1.1
v -2 3 1.4
v 2 3 1.4
v -1.8 3 1.2
v 1.8 3 1.2
v -0.6 3 1.1
v -0.3 3 1.1
v -1.5 3 1
v -1 3 1
v -0.6 3 1
v -0.3 3 1
v 1.6 3 1
v 1.7 3 1
v 0.5 3 0.9
v 0.7 3 0.9
v 1.3 3 0.9
v 1.4 3 0.9
v 1.6 3 0.9
v 1.7 3 0.9
v -1.5 3 0.8
v -1 3 0.8
v 0.1 3 0.8
v 0.3 3 0.8
v 0.5 3 0.8
v 0.7 3 0.8
v 1.3 3 0.8
v 1.4 3 0.8
v 0.1 3 0.7
v 0.3 3 0.7
v -1.7 3 0.6
v -1.6 3 0.6
v -1.7 3 0.5
v -1.6 3 0.5
v 0.9 3 0.1
v 1 3 0.1
v 0.9 3 -0.1
v 1 3 -0.1
v -1.8 3 -0.2
v -0.0999999 3 -0.2
v 0.6 3 -0.3
v 0.7 3 -0.3
v -1.8 3 -0.4
v -0.2 3 -0.4
v 0.6 3 -0.4
v 0.7 3 -0.4
v 1.3 3 -0.4
v 1.4 3 -0.4
v 1.3 3 -0.5
v 1.4 3 -0.5
v -1.8 3 -0.6
v -0.3 3 -0.6
v 0.8 3 -0.7
v 1 3 -0.7
v 0.8 3 -0.9
v 1 3 -0.9
v -1.8 3 -1.1
v -0.3 3 -1.1
v -0.2 3 -1.1
v -0.0999999 3 -1.1
v 1.8 3 -1.1
v -2 3 -1.3
v -1.9 3 -1.3
v 1.9 3 -1.3
v 2 3 -1.3
v -1.7 3.3 -1.2
v -0.7 3.3 -1.2
v -0.4 3.3 -1.2
v 0.5 3.3 -1.2
v 0.8 3.3 -1.2
v 1.7 3.3 -1.2
v -1.7 3.3 -1.3
v -0.7 3.3 -1.3
v -0.4 3.3 -1.3
v 0.5 3.3 -1.3
v 0.8 3.3 -1.3
v 1.7 3.3 -1.3
v -2 3.5 -1.3
v 2 3.5 -1.3
v -2 3.5 -2
v 2 3.5 -2

# faces
f 3/8/1 2/8/1 1/8/1
f 4/8/1 2/8/1 3/8/1
f 5/8/1 3/8/1 1/8/1
f 5/5/1 4/5/1 3/5/1
f 6/8/1 2/8/1 4/8/1
f 6/5/1 4/5/1 5/5/1
f 7/8/1 5/8/1 1/8/1
f 7/8/1 6/8/1 5/8/1
f 8/8/1 6/8/1 7/8/1
f 9/8/1 7/8/1 1/8/1
f 9/5/1 8/5/1 7/5/1
f 10/8/1 6/8/1 8/8/1
f 10/5/1 8/5/1 9/5/1
f 11/8/1 9/8/1 1/8/1
f 11/8/1 10/8/1 9/8/1
f 12/8/1 10/8/1 11/8/1
f 13/8/1 11/8/1 1/8/1
f 13/5/1 12/5/1 11/5/1
f 14/8/1 10/8/1 12/8/1
f 14/5/1 12/5/1 13/5/1
f 15/8/1 13/8/1 1/8/1
f 15/8/1 14/8/1 13/8/1
f 16/8/1 2/8/1 6/8/1
f 16/8/1 14/8/1 15/8/1
f 16/8/1 6/8/1 10/8/1
f 16/8/1 10/8/1 14/8/1
f 17/8/1 2/8/1 16/8/1
f 18/8/1 2/8/1 17/8/1
f 22/8/1 21/8/1 20/8/1
f 23/8/1 21/8/1 22/8/1
f 24/8/1 21/8/1 23/8/1
f 25/8/1 21/8/1 24/8/1
f 26/4/1 20/4/1 19/4/1
f 27/8/1 22/8/1 20/8/1
f 27/4/1 20/4/1 26/4/1
f 28/5/1 23/5/1 22/5/1
f 28/8/1 22/8/1 27/8/1
f 29/8/1 24/8/1 23/8/1
f 29/5/1 23/5/1 28/5/1
f 30/8/1 27/8/1 26/8/1
f 30/8/1 24/8/1 29/8/1
f 30/8/1 29/8/1 28/8/1
f 30/5/1 25/5/1 24/5/1
f 30/8/1 28/8/1 27/8/1
f 31/8/1 21/8/1 25/8/1
f 31/5/1 25/5/1 30/5/1
f 32/8/1 30/8/1 26/8/1
f 32/8/1 31/8/1 30/8/1
f 33/8/1 21/8/1 31/8/1
f 33/8/1 31/8/1 32/8/1
f 36/2/1 35/2/1 34/2/1
f 37/2/1 35/2/1 36/2/1
f 40/2/1 39/2/1 38/2/1
f 41/2/1 39/2/1 40/2/1
f 44/6/1 43/6/1 42/6/1
f 45/6/1 43/6/1 44/6/1
f 48/2/1 47/2/1 46/2/1
f 49/2/1 47/2/1 48/2/1
f 52/7/1 51/7/1 50/7/1
f 53/7/1 51/7/1 52/7/1
f 54/7/1 52/7/1 50/7/1
f 56/7/1 54/7/1 50/7/1
f 56/7/1 55/7/1 54/7/1
f 57/7/1 55/7/1 56/7/1
f 60/8/1 59/8/1 58/8/1
f 61/8/1 59/8/1 60/8/1
f 62/8/2 63/8/2 64/8/2
f 62/8/2 64/8/2 65/8/2
f 62/8/2 65/8/2 66/8/2
f 62/8/2 66/8/2 67/8/2
f 62/8/2 67/8/2 68/8/2
f 62/8/2 68/8/2 69/8/2
f 69/8/2 68/8/2 70/8/2
f 71/8/2 72/8/2 73/8/2
f 73/8/2 72/8/2 74/8/2
f 75/2/2 76/2/2 77/2/2
f 77/2/2 76/2/2 78/2/2
f 79/7/2 80/7/2 81/7/2
f 81/7/2 80/7/2 82/7/2
f 83/2/2 84/2/2 85/2/2
f 85/2/2 84/2/2 86/2/2
f 87/7/2 88/7/2 89/7/2
f 89/7/2 88/7/2 90/7/2
f 87/7/2 89/7/2 91/7/2
f 87/7/2 91/7/2 93/7/2
f 91/7/2 92/7/2 93/7/2
f 93/7/2 92/7/2 94/7/2
f 95/2/2 96/2/2 97/2/2
f 97/2/2 96/2/2 98/2/2
f 100/8/2 101/8/2 103/8/2
f 101/4/2 102/4/2 103/4/2
f 103/4/2 102/4/2 104/4/2
f 99/4/2 100/4/2 105/4/2
f 100/8/2 103/8/2 106/8/2
f 105/4/2 100/4/2 106/4/2
f 103/8/2 104/8/2 106/8/2
f 105/8/2 106/8/2 107/8/2
f 106/8/2 104/8/2 108/8/2
f 107/8/2 106/8/2 108/8/2
f 109/8/2 110/8/2 111/8/2
f 111/8/2 110/8/2 112/8/2
f 112/8/2 110/8/2 113/8/2
f 113/8/2 110/8/2 114/8/2
f 114/8/2 110/8/2 115/8/2
f 115/8/2 110/8/2 116/8/2
f 109/8/2 111/8/2 117/8/2
f 111/4/2 112/4/2 117/4/2
f 112/8/2 113/8/2 118/8/2
f 117/4/2 112/4/2 118/4/2
f 115/4/2 116/4/2 119/4/2
f 114/8/2 115/8/2 119/8/2
f 116/8/2 110/8/2 120/8/2
f 119/4/2 116/4/2 120/4/2
f 118/8/2 113/8/2 121/8/2
f 113/4/2 114/4/2 121/4/2
f 117/8/2 118/8/2 121/8/2
f 114/8/2 119/8/2 122/8/2
f 121/4/2 114/4/2 122/4/2
f 119/8/2 120/8/2 122/8/2
f 117/8/2 121/8/2 123/8/2
f 109/8/2 117/8/2 123/8/2
f 121/8/2 122/8/2 123/8/2
f 123/8/2 122/8/2 124/8/2
f 109/8/2 123/8/2 125/8/2
f 123/4/2 124/4/2 125/4/2
f 124/8/2 122/8/2 126/8/2
f 125/4/2 124/4/2 126/4/2
f 109/8/2 125/8/2 127/8/2
f 125/8/2 126/8/2 127/8/2
f 127/8/2 126/8/2 128/8/2
f 109/8/2 127/8/2 129/8/2
f 127/5/2 128/5/2 129/5/2
f 128/8/2 126/8/2 130/8/2
f 129/5/2 128/5/2 130/5/2
f 109/8/2 129/8/2 131/8/2
f 129/8/2 130/8/2 131/8/2
f 126/8/2 122/8/2 132/8/2
f 131/8/2 130/8/2 132/8/2
f 130/8/2 126/8/2 132/8/2
f 132/8/2 122/8/2 133/8/2
f 122/8/2 120/8/2 134/8/2
f 133/8/2 122/8/2 134/8/2
f 120/8/2 110/8/2 134/8/2
f 137/7/3 136/7/3 135/7/3
f 138/7/3 136/7/3 137/7/3
f 141/8/3 140/8/3 139/8/3
f 142/8/3 140/8/3 141/8/3
f 143/8/3 140/8/3 142/8/3
f 144/8/3 141/8/3 139/8/3
f 144/4/3 142/4/3 141/4/3
f 145/4/3 142/4/3 144/4/3
f 146/8/3 145/8/3 144/8/3
f 147/8/3 140/8/3 143/8/3
f 148/8/3 146/8/3 144/8/3
f 148/8/3 147/8/3 146/8/3
f 148/8/3 144/8/3 139/8/3
f 149/8/3 140/8/3 147/8/3
f 149/8/3 147/8/3 148/8/3
f 157/9/3 151/9/3 150/9/3
f 158/6/3 152/6/3 151/6/3
f 158/4/3 153/4/3 152/4/3
f 159/6/3 154/6/3 153/6/3
f 159/4/3 153/4/3 158/4/3
f 160/4/3 155/4/3 154/4/3
f 160/6/3 154/6/3 159/6/3
f 161/6/3 156/6/3 155/6/3
f 161/4/3 155/4/3 160/4/3
f 162/6/3 160/6/3 159/6/3
f 162/9/3 151/9/3 157/9/3
f 162/6/3 161/6/3 160/6/3
f 162/6/3 159/6/3 158/6/3
f 162/6/3 158/6/3 151/6/3
f 163/6/3 161/6/3 162/6/3
f 164/6/3 156/6/3 161/6/3
f 164/6/3 161/6/3 163/6/3
f 165/6/3 156/6/3 164/6/3
f 166/4/3 163/4/3 162/4/3
f 166/9/3 162/9/3 157/9/3
f 167/6/3 164/6/3 163/6/3
f 167/4/3 163/4/3 166/4/3
f 168/3/3 165/3/3 164/3/3
f 169/3/3 165/3/3 168/3/3
f 170/3/3 168/3/3 164/3/3
f 170/1/3 169/1/3 168/1/3
f 171/3/3 165/3/3 169/3/3
f 171/1/3 169/1/3 170/1/3
f 172/3/3 170/3/3 164/3/3
f 172/3/3 171/3/3 170/3/3
f 173/3/3 165/3/3 171/3/3
f 173/3/3 171/3/3 172/3/3
f 174/3/3 172/3/3 164/3/3
f 174/1/3 173/1/3 172/1/3
f 175/3/3 165/3/3 173/3/3
f 175/1/3 173/1/3 174/1/3
f 176/6/3 164/6/3 167/6/3
f 176/6/3 167/6/3 166/6/3
f 176/3/3 175/3/3 174/3/3
f 176/3/3 174/3/3 164/3/3
f 177/6/3 156/6/3 165/6/3
f 177/3/3 175/3/3 176/3/3
f 177/3/3 165/3/3 175/3/3
f 178/6/3 176/6/3 166/6/3
f 178/6/3 177/6/3 176/6/3
f 179/6/3 177/6/3 178/6/3
f 180/6/3 178/6/3 166/6/3
f 180/1/3 179/1/3 178/1/3
f 181/6/3 177/6/3 179/6/3
f 181/1/3 179/1/3 180/1/3
f 182/6/3 181/6/3 180/6/3
f 182/6/3 177/6/3 181/6/3
f 183/6/3 177/6/3 182/6/3
f 184/6/3 182/6/3 180/6/3
f 185/6/3 182/6/3 184/6/3
f 186/1/3 183/1/3 182/1/3
f 186/6/3 182/6/3 185/6/3
f 187/6/3 177/6/3 183/6/3
f 187/1/3 183/1/3 186/1/3
f 188/9/3 166/9/3 157/9/3
f 188/6/3 180/6/3 166/6/3
f 188/6/3 184/6/3 180/6/3
f 189/6/3 184/6/3 188/6/3
f 190/6/3 177/6/3 187/6/3
f 190/6/3 187/6/3 186/6/3
f 190/6/3 186/6/3 185/6/3
f 191/6/3 177/6/3 190/6/3
f 192/5/3 189/5/3 188/5/3
f 192/9/3 188/9/3 157/9/3
f 193/6/3 184/6/3 189/6/3
f 193/5/3 189/5/3 192/5/3
f 194/1/3 191/1/3 190/1/3
f 194/6/3 190/6/3 185/6/3
f 195/6/3 177/6/3 191/6/3
f 195/1/3 191/1/3 194/1/3
f 196/6/3 184/6/3 193/6/3
f 196/1/3 185/1/3 184/1/3
f 196/6/3 193/6/3 192/6/3
f 197/6/3 194/6/3 185/6/3
f 197/1/3 185/1/3 196/1/3
f 197/6/3 195/6/3 194/6/3
f 198/6/3 195/6/3 197/6/3
f 199/6/3 195/6/3 198/6/3
f 200/6/3 197/6/3 196/6/3
f 200/6/3 198/6/3 197/6/3
f 200/5/3 199/5/3 198/5/3
f 201/6/3 195/6/3 199/6/3
f 201/5/3 199/5/3 200/5/3
f 202/6/3 196/6/3 192/6/3
f 202/6/3 200/6/3 196/6/3
f 202/6/3 201/6/3 200/6/3
f 203/6/3 201/6/3 202/6/3
f 204/6/3 195/6/3 201/6/3
f 204/6/3 201/6/3 203/6/3
f 204/6/3 177/6/3 195/6/3
f 205/6/3 177/6/3 204/6/3
f 206/9/3 192/9/3 157/9/3
f 206/6/3 202/6/3 192/6/3
f 207/6/3 202/6/3 206/6/3
f 208/9/3 206/9/3 157/9/3
f 208/4/3 207/4/3 206/4/3
f 209/6/3 202/6/3 207/6/3
f 209/4/3 207/4/3 208/4/3
f 210/6/3 202/6/3 209/6/3
f 211/6/3 204/6/3 203/6/3
f 212/6/3 204/6/3 211/6/3
f 213/6/3 177/6/3 205/6/3
f 214/6/3 156/6/3 177/6/3
f 214/6/3 177/6/3 213/6/3
f 215/9/3 213/9/3 212/9/3
f 215/9/3 212/9/3 211/9/3
f 215/9/3 214/9/3 213/9/3
f 215/9/3 210/9/3 209/9/3
f 215/9/3 211/9/3 210/9/3
f 215/9/3 208/9/3 157/9/3
f 215/9/3 209/9/3 208/9/3
f 216/9/3 214/9/3 215/9/3
f 217/6/3 216/6/3 215/6/3
f 218/6/3 216/6/3 217/6/3
f 222/4/3 220/4/3 219/4/3
f 223/4/3 220/4/3 222/4/3
f 224/8/3 223/8/3 222/8/3
f 225/4/3 220/4/3 223/4/3
f 225/8/3 223/8/3 224/8/3
f 226/8/3 221/8/3 220/8/3
f 226/4/3 220/4/3 225/4/3
f 227/4/3 225/4/3 224/4/3
f 228/8/3 226/8/3 225/8/3
f 228/4/3 225/4/3 227/4/3
f 229/8/3 228/8/3 227/8/3
f 230/8/3 221/8/3 226/8/3
f 230/8/3 228/8/3 229/8/3
f 230/8/3 226/8/3 228/8/3
f 231/4/3 230/4/3 229/4/3
f 232/8/3 221/8/3 230/8/3
f 232/4/3 230/4/3 231/4/3
f 233/8/3 221/8/3 232/8/3
f 236/7/3 235/7/3 234/7/3
f 237/7/3 235/7/3 236/7/3
f 240/8/3 239/8/3 238/8/3
f 241/8/3 239/8/3 240/8/3
f 244/2/3 243/2/3 242/2/3
f 245/2/3 243/2/3 244/2/3
f 248/2/3 247/2/3 246/2/3
f 249/2/3 247/2/3 248/2/3
f 252/2/3 251/2/3 250/2/3
f 253/2/3 251/2/3 252/2/3
f 256/8/3 255/8/3 254/8/3
f 257/8/3 255/8/3 256/8/3
f 258/6/3 257/6/3 256/6/3
f 259/6/3 257/6/3 258/6/3
f 260/6/3 258/6/3 256/6/3
f 261/6/3 257/6/3 259/6/3
f 262/6/3 260/6/3 256/6/3
f 262/6/3 261/6/3 260/6/3
f 263/6/3 257/6/3 261/6/3
f 263/6/3 261/6/3 262/6/3
f 264/6/3 262/6/3 256/6/3
f 265/6/3 257/6/3 263/6/3
f 266/6/3 264/6/3 256/6/3
f 266/6/3 265/6/3 264/6/3
f 267/6/3 257/6/3 265/6/3
f 267/6/3 265/6/3 266/6/3
f 268/6/3 266/6/3 256/6/3
f 269/6/3 257/6/3 267/6/3
f 270/6/3 268/6/3 256/6/3
f 270/6/3 269/6/3 268/6/3
f 271/8/3 255/8/3 257/8/3
f 271/6/3 269/6/3 270/6/3
f 271/6/3 257/6/3 269/6/3
f 272/8/3 271/8/3 270/8/3
f 273/8/3 255/8/3 271/8/3
f 273/8/3 271/8/3 272/8/3
f 274/7/4 275/7/4 276/7/4
f 276/7/4 275/7/4 277/7/4
f 278/6/4 279/6/4 280/6/4
f 280/6/4 279/6/4 281/6/4
f 282/8/4 283/8/4 285/8/4
f 284/8/4 285/8/4 286/8/4
f 286/8/4 285/8/4 287/8/4
f 286/4/4 287/4/4 288/4/4
f 287/8/4 285/8/4 289/8/4
f 288/4/4 287/4/4 289/4/4
f 285/8/4 283/8/4 290/8/4
f 289/8/4 285/8/4 290/8/4
f 290/8/4 283/8/4 291/8/4
f 291/8/4 283/8/4 292/8/4
f 299/4/5 294/4/5 293/4/5
f 300/8/5 295/8/5 294/8/5
f 300/4/5 294/4/5 299/4/5
f 301/4/5 296/4/5 295/4/5
f 301/8/5 295/8/5 300/8/5
f 302/8/5 297/8/5 296/8/5
f 302/4/5 296/4/5 301/4/5
f 303/4/5 298/4/5 297/4/5
f 303/8/5 297/8/5 302/8/5
f 304/4/5 298/4/5 303/4/5
f 305/8/5 302/8/5 301/8/5
f 305/8/5 300/8/5 299/8/5
f 305/8/5 304/8/5 303/8/5
f 305/8/5 303/8/5 302/8/5
f 305/8/5 301/8/5 300/8/5
f 306/8/5 304/8/5 305/8/5
f 307/8/5 305/8/5 299/8/5
f 308/4/5 306/4/5 305/4/5
f 308/8/5 305/8/5 307/8/5
f 309/4/5 306/4/5 308/4/5
f 312/8/5 311/8/5 310/8/5
f 313/8/5 311/8/5 312/8/5
f 314/8/5 312/8/5 310/8/5
f 315/8/5 312/8/5 314/8/5
f 316/8/5 311/8/5 313/8/5
f 317/8/5 311/8/5 316/8/5
f 320/7/5 319/7/5 318/7/5
f 321/7/5 319/7/5 320/7/5
f 324/7/5 323/7/5 322/7/5
f 325/7/5 323/7/5 324/7/5
f 328/8/5 327/8/5 326/8/5
f 329/8/5 327/8/5 328/8/5
f 330/8/5 327/8/5 329/8/5
f 331/8/5 327/8/5 330/8/5
f 338/2/5 333/2/5 332/2/5
f 339/2/5 333/2/5 338/2/5
f 340/2/5 335/2/5 334/2/5
f 341/2/5 335/2/5 340/2/5
f 342/2/5 337/2/5 336/2/5
f 343/2/5 337/2/5 342/2/5
f 344/4/6 345/4/6 347/4/6
f 345/8/6 346/8/6 348/8/6
f 347/4/6 345/4/6 348/4/6
f 348/8/6 346/8/6 349/8/6
f 349/8/6 346/8/6 350/8/6
f 351/7/6 352/7/6 353/7/6
f 353/7/6 352/7/6 354/7/6
f 355/7/6 356/7/6 357/7/6
f 357/7/6 356/7/6 358/7/6
f 359/8/6 360/8/6 361/8/6
f 361/8/6 360/8/6 362/8/6
f 362/8/6 360/8/6 363/8/6
f 363/8/6 360/8/6 364/8/6
f 365/8/6 366/8/6 367/8/6
f 367/8/6 366/8/6 368/8/6
f 367/6/6 368/6/6 369/6/6
f 369/6/6 368/6/6 370/6/6
f 367/6/6 369/6/6 371/6/6
f 371/6/6 369/6/6 372/6/6
f 369/1/6 370/1/6 373/1/6
f 372/6/6 369/6/6 373/6/6
f 370/6/6 368/6/6 374/6/6
f 373/1/6 370/1/6 374/1/6
f 374/6/6 368/6/6 375/6/6
f 375/6/6 368/6/6 376/6/6
f 372/6/6 373/6/6 377/6/6
f 373/6/6 374/6/6 377/6/6
f 374/6/6 375/6/6 377/6/6
f 377/6/6 375/6/6 378/6/6
f 378/6/6 375/6/6 379/6/6
f 379/6/6 375/6/6 380/6/6
f 375/1/6 376/1/6 381/1/6
f 380/6/6 375/6/6 381/6/6
f 376/6/6 368/6/6 382/6/6
f 381/1/6 376/1/6 382/1/6
f 371/1/6 372/1/6 383/1/6
f 367/6/6 371/6/6 383/6/6
f 372/6/6 377/6/6 384/6/6
f 383/1/6 372/1/6 384/1/6
f 384/6/6 377/6/6 385/6/6
f 385/6/6 377/6/6 386/6/6
f 377/1/6 378/1/6 387/1/6
f 386/6/6 377/6/6 387/6/6
f 378/6/6 379/6/6 388/6/6
f 387/1/6 378/1/6 388/1/6
f 379/1/6 380/1/6 389/1/6
f 388/6/6 379/6/6 389/6/6
f 380/6/6 381/6/6 390/6/6
f 389/1/6 380/1/6 390/1/6
f 381/6/6 382/6/6 390/6/6
f 384/6/6 385/6/6 391/6/6
f 385/1/6 386/1/6 391/1/6
f 383/6/6 384/6/6 391/6/6
f 388/6/6 389/6/6 392/6/6
f 391/1/6 386/1/6 392/1/6
f 387/6/6 388/6/6 392/6/6
f 386/6/6 387/6/6 392/6/6
f 389/6/6 390/6/6 392/6/6
f 383/6/6 391/6/6 393/6/6
f 367/6/6 383/6/6 393/6/6
f 391/6/6 392/6/6 393/6/6
f 393/6/6 392/6/6 394/6/6
f 367/6/6 393/6/6 395/6/6
f 393/1/6 394/1/6 395/1/6
f 394/6/6 392/6/6 396/6/6
f 395/1/6 394/1/6 396/1/6
f 392/6/6 390/6/6 397/6/6
f 396/6/6 392/6/6 397/6/6
f 395/6/6 396/6/6 397/6/6
f 397/6/6 390/6/6 398/6/6
f 395/6/6 397/6/6 399/6/6
f 397/1/6 398/1/6 399/1/6
f 398/6/6 390/6/6 400/6/6
f 399/1/6 398/1/6 400/1/6
f 365/8/6 367/8/6 401/8/6
f 367/6/6 395/6/6 401/6/6
f 399/6/6 400/6/6 401/6/6
f 395/6/6 399/6/6 401/6/6
f 401/6/6 400/6/6 402/6/6
f 402/6/6 400/6/6 403/6/6
f 403/6/6 400/6/6 404/6/6
f 365/8/6 401/8/6 405/8/6
f 402/6/6 403/6/6 407/6/6
f 403/1/6 404/1/6 407/1/6
f 404/6/6 400/6/6 408/6/6
f 407/1/6 404/1/6 408/1/6
f 400/6/6 390/6/6 409/6/6
f 408/6/6 400/6/6 409/6/6
f 390/6/6 382/6/6 410/6/6
f 409/6/6 390/6/6 410/6/6
f 407/6/6 408/6/6 411/6/6
f 408/6/6 409/6/6 411/6/6
f 409/1/6 410/1/6 411/1/6
f 410/6/6 382/6/6 412/6/6
f 411/1/6 410/1/6 412/1/6
f 365/8/6 405/8/6 413/8/6
f 405/7/6 406/7/6 413/7/6
f 413/7/6 406/7/6 414/7/6
f 407/6/6 411/6/6 415/6/6
f 411/6/6 412/6/6 415/6/6
f 415/6/6 412/6/6 416/6/6
f 407/6/6 415/6/6 417/6/6
f 415/1/6 416/1/6 417/1/6
f 416/6/6 412/6/6 418/6/6
f 417/1/6 416/1/6 418/1/6
f 413/6/6 414/6/6 419/6/6
f 365/8/6 413/8/6 419/8/6
f 414/7/6 406/7/6 420/7/6
f 419/6/6 414/6/6 420/6/6
f 420/7/6 406/7/6 421/7/6
f 402/6/6 407/6/6 422/6/6
f 417/6/6 418/6/6 422/6/6
f 407/6/6 417/6/6 422/6/6
f 368/8/6 366/8/6 423/8/6
f 412/6/6 382/6/6 423/6/6
f 422/6/6 418/6/6 423/6/6
f 382/6/6 368/6/6 423/6/6
f 418/6/6 412/6/6 423/6/6
f 365/8/6 419/8/6 424/8/6
f 421/8/6 422/8/6 424/8/6
f 422/8/6 423/8/6 424/8/6
f 420/8/6 421/8/6 424/8/6
f 419/8/6 420/8/6 424/8/6
f 424/8/6 423/8/6 425/8/6
f 423/8/6 366/8/6 426/8/6
f 425/8/6 423/8/6 426/8/6
f 426/8/6 366/8/6 427/8/6
f 428/2/6 429/2/6 434/2/6
f 434/2/6 429/2/6 435/2/6
f 430/2/6 431/2/6 436/2/6
f 436/2/6 431/2/6 437/2/6
f 432/2/6 433/2/6 438/2/6
f 438/2/6 433/2/6 439/2/6
f 440/8/6 441/8/6 442/8/6
f 442/8/6 441/8/6 443/8/6
