# MagicaVoxel @ Ephtracy

# group
o 

# material
mtllib Fridge.vox.mtl
usemtl palette

# normals
vn -1 0 0
vn 1 0 0
vn 0 0 1
vn 0 0 -1
vn 0 -1 0
vn 0 1 0

# texcoords
vt 0.287109 0.5
vt 0.447266 0.5
vt 0.462891 0.5
vt 0.466797 0.5
vt 0.958984 0.5
vt 0.962891 0.5
vt 0.966797 0.5
vt 0.982422 0.5

# verts
v -2 0 1.9
v -2 0 1.8
v -2 0 -1.7
v -2 0.4 -1.7
v -2 0.4 -1.8
v -2 3.3 -1.4
v -2 3.3 -1.8
v -2 3.5 -1.4
v -2 3.5 -1.7
v -2 7.9 1.8
v -2 7.9 -1.2
v -2 8 1.9
v -2 8 1.8
v -2 8 -1.2
v -2 8 -1.7
v -0.6 4.8 -1.5
v -0.6 4.8 -1.7
v -0.6 4.8 -1.8
v -0.6 6 -1.5
v -0.6 6 -1.7
v -0.6 6 -1.8
v -0.5 3 -1.8
v -0.5 3 -1.9
v -0.5 3.1 -1.8
v -0.5 3.1 -1.9
v 0.1 3.5 -1.4
v 0.1 3.5 -1.7
v 0.1 8 -1.4
v 0.1 8 -1.7
v 0.3 4.8 -1.7
v 0.3 4.8 -1.8
v 0.3 6 -1.7
v 0.3 6 -1.8
v 0.7 2.7 -1.5
v 0.7 2.7 -1.8
v 0.7 3 -1.5
v 0.7 3 -1.8
v 0.7 4.8 -1.5
v 0.7 4.8 -1.7
v 0.7 6 -1.5
v 0.7 6 -1.7
v 0.9 5.1 -1.3
v 0.9 5.1 -1.6
v 0.9 5.2 -1.3
v 0.9 5.2 -1.6
v 1 5 -1.2
v 1 5 -1.6
v 1 5.1 -1.3
v 1 5.1 -1.6
v 1 5.2 -1.2
v 1 5.2 -1.3
v 1.4 3.9 -1.2
v 1.4 3.9 -1.7
v 1.4 5.2 -1.2
v 1.4 5.2 -1.7
v 1.8 0 -1.6
v 1.8 0 -1.7
v 1.8 0.4 -1.6
v 1.8 0.4 -1.7
v -1.9 0 -1.6
v -1.9 0 -1.7
v -1.9 0.4 -1.6
v -1.9 0.4 -1.7
v -0.8 4.8 -1.5
v -0.8 4.8 -1.7
v -0.8 6 -1.5
v -0.8 6 -1.7
v -0.7 2.7 -1.5
v -0.7 2.7 -1.8
v -0.7 3 -1.5
v -0.7 3 -1.8
v -0.4 4.8 -1.7
v -0.4 4.8 -1.8
v -0.4 6 -1.7
v -0.4 6 -1.8
v -0.2 3.5 -1.4
v -0.2 3.5 -1.7
v -0.2 8 -1.4
v -0.2 8 -1.7
v 0.5 3 -1.8
v 0.5 3 -1.9
v 0.5 3.1 -1.8
v 0.5 3.1 -1.9
v 0.5 4.8 -1.5
v 0.5 4.8 -1.7
v 0.5 4.8 -1.8
v 0.5 6 -1.5
v 0.5 6 -1.7
v 0.5 6 -1.8
v 0.8 3.9 -1.2
v 0.8 3.9 -1.7
v 0.8 5.2 -1.2
v 0.8 5.2 -1.7
v 1.2 5 -1.2
v 1.2 5 -1.6
v 1.2 5.1 -1.3
v 1.2 5.1 -1.6
v 1.2 5.2 -1.2
v 1.2 5.2 -1.3
v 1.3 5.1 -1.3
v 1.3 5.1 -1.6
v 1.3 5.2 -1.3
v 1.3 5.2 -1.6
v 1.8 3.3 1.5
v 1.8 3.3 -1.3
v 1.8 3.3 -1.4
v 1.8 3.5 1.5
v 1.8 3.5 -1.3
v 1.8 3.5 -1.4
v 1.9 0 1.9
v 1.9 0 1.8
v 1.9 0 -1.7
v 1.9 0.4 -1.7
v 1.9 0.4 -1.8
v 1.9 3.3 1.5
v 1.9 3.3 -1.8
v 1.9 3.5 1.5
v 1.9 3.5 -1.7
v 1.9 7.9 1.8
v 1.9 7.9 -1.2
v 1.9 8 1.9
v 1.9 8 1.8
v 1.9 8 -1.2
v 1.9 8 -1.7
v -2 0 1.9
v -2 8 1.9
v 1.9 0 1.9
v 1.9 8 1.9
v 0.9 5.1 -1.3
v 0.9 5.2 -1.3
v 1 5.1 -1.3
v 1 5.2 -1.3
v 1.2 5.1 -1.3
v 1.2 5.2 -1.3
v 1.3 5.1 -1.3
v 1.3 5.2 -1.3
v 1.8 3.3 1.5
v 1.8 3.5 1.5
v 1.9 3.3 1.5
v 1.9 3.5 1.5
v 0.8 3.9 -1.2
v 0.8 5.2 -1.2
v 1 5 -1.2
v 1 5.2 -1.2
v 1.2 5 -1.2
v 1.2 5.2 -1.2
v 1.4 3.9 -1.2
v 1.4 5.2 -1.2
v -2 3.3 -1.4
v -2 3.5 -1.4
v -1.9 3.3 -1.4
v -1.9 3.5 -1.4
v -0.2 3.5 -1.4
v -0.2 8 -1.4
v 0.1 3.5 -1.4
v 0.1 8 -1.4
v 1.8 3.3 -1.4
v 1.8 3.5 -1.4
v -0.8 4.8 -1.5
v -0.8 6 -1.5
v -0.7 2.7 -1.5
v -0.7 3 -1.5
v -0.6 4.8 -1.5
v -0.6 6 -1.5
v 0.5 4.8 -1.5
v 0.5 6 -1.5
v 0.7 2.7 -1.5
v 0.7 3 -1.5
v 0.7 4.8 -1.5
v 0.7 6 -1.5
v -1.9 0 -1.6
v -1.9 0.4 -1.6
v 0.9 5.1 -1.6
v 0.9 5.2 -1.6
v 1 5 -1.6
v 1 5.1 -1.6
v 1.2 5 -1.6
v 1.2 5.1 -1.6
v 1.3 5.1 -1.6
v 1.3 5.2 -1.6
v 1.8 0 -1.6
v 1.8 0.4 -1.6
v -2 0 -1.7
v -2 0.4 -1.7
v -2 3.5 -1.7
v -2 8 -1.7
v -1.9 0 -1.7
v -1.9 0.4 -1.7
v -1.9 3.5 -1.7
v -1.9 8 -1.7
v -1.8 7.6 -1.7
v -1.8 7.9 -1.7
v -1.1 7.6 -1.7
v -1.1 7.9 -1.7
v -0.8 4.8 -1.7
v -0.8 6 -1.7
v -0.6 4.8 -1.7
v -0.6 6 -1.7
v -0.4 4.8 -1.7
v -0.4 6 -1.7
v -0.2 3.5 -1.7
v -0.2 8 -1.7
v 0.1 3.5 -1.7
v 0.1 8 -1.7
v 0.3 4.8 -1.7
v 0.3 6 -1.7
v 0.5 4.8 -1.7
v 0.5 6 -1.7
v 0.7 4.8 -1.7
v 0.7 6 -1.7
v 0.8 3.8 -1.7
v 0.8 3.9 -1.7
v 0.8 5.2 -1.7
v 1.4 3.8 -1.7
v 1.4 3.9 -1.7
v 1.4 5.2 -1.7
v 1.8 0 -1.7
v 1.8 0.4 -1.7
v 1.8 3.5 -1.7
v 1.8 8 -1.7
v 1.9 0 -1.7
v 1.9 0.4 -1.7
v 1.9 3.5 -1.7
v 1.9 8 -1.7
v -2 0.4 -1.8
v -2 3.3 -1.8
v -1.9 0.4 -1.8
v -1.9 3.3 -1.8
v -0.7 2.7 -1.8
v -0.7 3 -1.8
v -0.6 4.8 -1.8
v -0.6 6 -1.8
v -0.5 3 -1.8
v -0.5 3.1 -1.8
v -0.4 4.8 -1.8
v -0.4 6 -1.8
v 0.3 4.8 -1.8
v 0.3 6 -1.8
v 0.5 3 -1.8
v 0.5 3.1 -1.8
v 0.5 4.8 -1.8
v 0.5 6 -1.8
v 0.7 2.7 -1.8
v 0.7 3 -1.8
v 1.8 0.4 -1.8
v 1.8 3.3 -1.8
v 1.9 0.4 -1.8
v 1.9 3.3 -1.8
v -0.5 3 -1.9
v -0.5 3.1 -1.9
v 0.5 3 -1.9
v 0.5 3.1 -1.9
v -2 0 1.9
v 1.9 0 1.9
v -2 0 1.8
v -1.9 0 1.8
v 1.8 0 1.8
v 1.9 0 1.8
v -1.9 0 -1.5
v 1.8 0 -1.5
v -1.9 0 -1.6
v 1.8 0 -1.6
v -2 0 -1.7
v -1.9 0 -1.7
v 1.8 0 -1.7
v 1.9 0 -1.7
v -1.9 0.4 -1.6
v 1.8 0.4 -1.6
v -2 0.4 -1.7
v -1.9 0.4 -1.7
v 1.8 0.4 -1.7
v 1.9 0.4 -1.7
v -2 0.4 -1.8
v -1.9 0.4 -1.8
v 1.8 0.4 -1.8
v 1.9 0.4 -1.8
v -0.7 3 -1.5
v 0.7 3 -1.5
v -0.7 3 -1.8
v -0.5 3 -1.8
v 0.5 3 -1.8
v 0.7 3 -1.8
v -0.5 3 -1.9
v 0.5 3 -1.9
v 1.8 3.5 1.5
v 1.9 3.5 1.5
v 1.8 3.5 -1.3
v -2 3.5 -1.4
v -1.9 3.5 -1.4
v -0.2 3.5 -1.4
v 0.1 3.5 -1.4
v 1.8 3.5 -1.4
v -2 3.5 -1.7
v -1.9 3.5 -1.7
v -0.2 3.5 -1.7
v 0.1 3.5 -1.7
v 1.8 3.5 -1.7
v 1.9 3.5 -1.7
v -0.6 4.8 -1.7
v -0.4 4.8 -1.7
v 0.3 4.8 -1.7
v 0.5 4.8 -1.7
v -0.6 4.8 -1.8
v -0.4 4.8 -1.8
v 0.3 4.8 -1.8
v 0.5 4.8 -1.8
v 1 5 -1.2
v 1.2 5 -1.2
v 1 5 -1.6
v 1.2 5 -1.6
v 0.9 5.1 -1.3
v 1 5.1 -1.3
v 1.2 5.1 -1.3
v 1.3 5.1 -1.3
v 0.9 5.1 -1.6
v 1 5.1 -1.6
v 1.2 5.1 -1.6
v 1.3 5.1 -1.6
v 0.8 5.2 -1.2
v 1 5.2 -1.2
v 1.2 5.2 -1.2
v 1.4 5.2 -1.2
v 0.9 5.2 -1.3
v 1 5.2 -1.3
v 1.2 5.2 -1.3
v 1.3 5.2 -1.3
v 0.9 5.2 -1.6
v 1.3 5.2 -1.6
v 0.8 5.2 -1.7
v 1.4 5.2 -1.7
v -0.8 6 -1.5
v -0.6 6 -1.5
v 0.5 6 -1.5
v 0.7 6 -1.5
v -0.8 6 -1.7
v -0.6 6 -1.7
v 0.5 6 -1.7
v 0.7 6 -1.7
v -0.7 2.7 -1.5
v 0.7 2.7 -1.5
v -0.7 2.7 -1.8
v 0.7 2.7 -1.8
v -0.5 3.1 -1.8
v 0.5 3.1 -1.8
v -0.5 3.1 -1.9
v 0.5 3.1 -1.9
v 1.8 3.3 1.5
v 1.9 3.3 1.5
v 1.8 3.3 -1.3
v -2 3.3 -1.4
v -1.9 3.3 -1.4
v 1.8 3.3 -1.4
v -2 3.3 -1.8
v -1.9 3.3 -1.8
v 1.8 3.3 -1.8
v 1.9 3.3 -1.8
v 0.8 3.9 -1.2
v 1.4 3.9 -1.2
v 0.8 3.9 -1.7
v 1.4 3.9 -1.7
v -0.8 4.8 -1.5
v -0.6 4.8 -1.5
v 0.5 4.8 -1.5
v 0.7 4.8 -1.5
v -0.8 4.8 -1.7
v -0.6 4.8 -1.7
v 0.5 4.8 -1.7
v 0.7 4.8 -1.7
v -0.6 6 -1.7
v -0.4 6 -1.7
v 0.3 6 -1.7
v 0.5 6 -1.7
v -0.6 6 -1.8
v -0.4 6 -1.8
v 0.3 6 -1.8
v 0.5 6 -1.8
v -2 8 1.9
v 1.9 8 1.9
v -2 8 1.8
v 1.9 8 1.8
v -2 8 -1.2
v -1.9 8 -1.2
v 1.8 8 -1.2
v 1.9 8 -1.2
v -0.2 8 -1.3
v 0.1 8 -1.3
v -0.2 8 -1.4
v 0.1 8 -1.4
v -2 8 -1.7
v -1.9 8 -1.7
v -0.2 8 -1.7
v 0.1 8 -1.7
v 1.8 8 -1.7
v 1.9 8 -1.7

# faces
f 4/4/1 3/4/1 2/4/1
f 6/4/1 4/4/1 2/4/1
f 6/4/1 5/4/1 4/4/1
f 7/4/1 5/4/1 6/4/1
f 8/4/1 6/4/1 2/4/1
f 10/8/1 2/8/1 1/8/1
f 10/4/1 9/4/1 8/4/1
f 10/4/1 8/4/1 2/4/1
f 11/4/1 9/4/1 10/4/1
f 12/8/1 10/8/1 1/8/1
f 13/6/1 11/6/1 10/6/1
f 13/8/1 10/8/1 12/8/1
f 14/4/1 9/4/1 11/4/1
f 14/6/1 11/6/1 13/6/1
f 15/4/1 9/4/1 14/4/1
f 19/1/1 17/1/1 16/1/1
f 20/7/1 18/7/1 17/7/1
f 20/1/1 17/1/1 19/1/1
f 21/7/1 18/7/1 20/7/1
f 24/7/1 23/7/1 22/7/1
f 25/7/1 23/7/1 24/7/1
f 28/1/1 27/1/1 26/1/1
f 29/1/1 27/1/1 28/1/1
f 32/7/1 31/7/1 30/7/1
f 33/7/1 31/7/1 32/7/1
f 36/1/1 35/1/1 34/1/1
f 37/1/1 35/1/1 36/1/1
f 40/1/1 39/1/1 38/1/1
f 41/1/1 39/1/1 40/1/1
f 44/6/1 43/6/1 42/6/1
f 45/6/1 43/6/1 44/6/1
f 48/6/1 47/6/1 46/6/1
f 49/6/1 47/6/1 48/6/1
f 50/6/1 48/6/1 46/6/1
f 51/6/1 48/6/1 50/6/1
f 54/1/1 53/1/1 52/1/1
f 55/1/1 53/1/1 54/1/1
f 58/4/1 57/4/1 56/4/1
f 59/4/1 57/4/1 58/4/1
f 60/4/2 61/4/2 62/4/2
f 62/4/2 61/4/2 63/4/2
f 64/1/2 65/1/2 66/1/2
f 66/1/2 65/1/2 67/1/2
f 68/1/2 69/1/2 70/1/2
f 70/1/2 69/1/2 71/1/2
f 72/7/2 73/7/2 74/7/2
f 74/7/2 73/7/2 75/7/2
f 76/1/2 77/1/2 78/1/2
f 78/1/2 77/1/2 79/1/2
f 80/7/2 81/7/2 82/7/2
f 82/7/2 81/7/2 83/7/2
f 84/1/2 85/1/2 87/1/2
f 85/7/2 86/7/2 88/7/2
f 87/1/2 85/1/2 88/1/2
f 88/7/2 86/7/2 89/7/2
f 90/1/2 91/1/2 92/1/2
f 92/1/2 91/1/2 93/1/2
f 94/6/2 95/6/2 96/6/2
f 96/6/2 95/6/2 97/6/2
f 94/6/2 96/6/2 98/6/2
f 98/6/2 96/6/2 99/6/2
f 100/6/2 101/6/2 102/6/2
f 102/6/2 101/6/2 103/6/2
f 104/1/2 105/1/2 107/1/2
f 105/4/2 106/4/2 108/4/2
f 107/1/2 105/1/2 108/1/2
f 108/4/2 106/4/2 109/4/2
f 111/4/2 112/4/2 113/4/2
f 111/4/2 113/4/2 115/4/2
f 113/4/2 114/4/2 115/4/2
f 115/4/2 114/4/2 116/4/2
f 111/4/2 115/4/2 117/4/2
f 110/8/2 111/8/2 119/8/2
f 117/4/2 118/4/2 119/4/2
f 111/4/2 117/4/2 119/4/2
f 119/4/2 118/4/2 120/4/2
f 110/8/2 119/8/2 121/8/2
f 119/6/2 120/6/2 122/6/2
f 121/8/2 119/8/2 122/8/2
f 120/4/2 118/4/2 123/4/2
f 122/6/2 120/6/2 123/6/2
f 123/4/2 118/4/2 124/4/2
f 127/8/3 126/8/3 125/8/3
f 128/8/3 126/8/3 127/8/3
f 131/6/3 130/6/3 129/6/3
f 132/6/3 130/6/3 131/6/3
f 135/6/3 134/6/3 133/6/3
f 136/6/3 134/6/3 135/6/3
f 137/4/4 138/4/4 139/4/4
f 139/4/4 138/4/4 140/4/4
f 141/2/4 142/2/4 143/2/4
f 143/2/4 142/2/4 144/2/4
f 141/2/4 143/2/4 145/2/4
f 141/2/4 145/2/4 147/2/4
f 145/2/4 146/2/4 147/2/4
f 147/2/4 146/2/4 148/2/4
f 149/4/4 150/4/4 151/4/4
f 151/4/4 150/4/4 152/4/4
f 151/4/4 152/4/4 153/4/4
f 151/4/4 153/4/4 155/4/4
f 153/4/4 154/4/4 155/4/4
f 155/4/4 154/4/4 156/4/4
f 151/4/4 155/4/4 157/4/4
f 157/4/4 155/4/4 158/4/4
f 159/3/4 160/3/4 163/3/4
f 163/3/4 160/3/4 164/3/4
f 161/3/4 162/3/4 167/3/4
f 167/3/4 162/3/4 168/3/4
f 165/3/4 166/3/4 169/3/4
f 169/3/4 166/3/4 170/3/4
f 173/6/4 174/6/4 176/6/4
f 175/6/4 176/6/4 177/6/4
f 176/6/4 174/6/4 178/6/4
f 177/6/4 176/6/4 178/6/4
f 178/6/4 174/6/4 179/6/4
f 179/6/4 174/6/4 180/6/4
f 171/6/4 172/6/4 181/6/4
f 181/6/4 172/6/4 182/6/4
f 183/4/4 184/4/4 187/4/4
f 187/4/4 184/4/4 188/4/4
f 185/4/4 186/4/4 189/4/4
f 189/4/4 186/4/4 190/4/4
f 189/1/4 190/1/4 191/1/4
f 191/1/4 190/1/4 192/1/4
f 189/1/4 191/1/4 193/1/4
f 191/5/4 192/5/4 193/5/4
f 192/1/4 190/1/4 194/1/4
f 193/5/4 192/5/4 194/5/4
f 189/1/4 193/1/4 195/1/4
f 193/1/4 194/1/4 195/1/4
f 195/1/4 194/1/4 196/1/4
f 189/1/4 195/1/4 197/1/4
f 196/1/4 194/1/4 198/1/4
f 189/1/4 197/1/4 199/1/4
f 198/1/4 194/1/4 200/1/4
f 189/1/4 199/1/4 201/1/4
f 199/1/4 200/1/4 201/1/4
f 194/1/4 190/1/4 202/1/4
f 201/1/4 200/1/4 202/1/4
f 200/1/4 194/1/4 202/1/4
f 203/1/4 204/1/4 205/1/4
f 205/1/4 204/1/4 206/1/4
f 203/1/4 205/1/4 207/1/4
f 206/1/4 204/1/4 208/1/4
f 203/1/4 207/1/4 209/1/4
f 208/1/4 204/1/4 210/1/4
f 203/1/4 209/1/4 211/1/4
f 209/1/4 210/1/4 211/1/4
f 211/1/4 210/1/4 212/1/4
f 212/1/4 210/1/4 213/1/4
f 203/1/4 211/1/4 214/1/4
f 211/2/4 212/2/4 214/2/4
f 214/2/4 212/2/4 215/2/4
f 213/1/4 210/1/4 216/1/4
f 214/1/4 215/1/4 219/1/4
f 203/1/4 214/1/4 219/1/4
f 215/1/4 216/1/4 219/1/4
f 210/1/4 204/1/4 220/1/4
f 219/1/4 216/1/4 220/1/4
f 216/1/4 210/1/4 220/1/4
f 217/4/4 218/4/4 221/4/4
f 221/4/4 218/4/4 222/4/4
f 219/4/4 220/4/4 223/4/4
f 223/4/4 220/4/4 224/4/4
f 225/4/4 226/4/4 227/4/4
f 227/4/4 226/4/4 228/4/4
f 227/1/4 228/1/4 229/1/4
f 229/1/4 228/1/4 230/1/4
f 230/1/4 228/1/4 233/1/4
f 233/1/4 228/1/4 234/1/4
f 231/7/4 232/7/4 235/7/4
f 235/7/4 232/7/4 236/7/4
f 234/1/4 228/1/4 240/1/4
f 237/7/4 238/7/4 241/7/4
f 241/7/4 238/7/4 242/7/4
f 227/1/4 229/1/4 243/1/4
f 239/1/4 240/1/4 244/1/4
f 227/1/4 243/1/4 245/1/4
f 243/1/4 244/1/4 245/1/4
f 244/1/4 240/1/4 246/1/4
f 245/1/4 244/1/4 246/1/4
f 240/1/4 228/1/4 246/1/4
f 245/4/4 246/4/4 247/4/4
f 247/4/4 246/4/4 248/4/4
f 249/7/4 250/7/4 251/7/4
f 251/7/4 250/7/4 252/7/4
f 255/8/5 254/8/5 253/8/5
f 256/8/5 254/8/5 255/8/5
f 257/8/5 254/8/5 256/8/5
f 258/8/5 254/8/5 257/8/5
f 259/4/5 256/4/5 255/4/5
f 259/1/5 257/1/5 256/1/5
f 260/4/5 258/4/5 257/4/5
f 260/1/5 257/1/5 259/1/5
f 261/4/5 259/4/5 255/4/5
f 261/6/5 260/6/5 259/6/5
f 262/4/5 258/4/5 260/4/5
f 262/6/5 260/6/5 261/6/5
f 263/4/5 261/4/5 255/4/5
f 264/4/5 261/4/5 263/4/5
f 265/4/5 258/4/5 262/4/5
f 266/4/5 258/4/5 265/4/5
f 270/1/5 268/1/5 267/1/5
f 271/1/5 268/1/5 270/1/5
f 273/4/5 270/4/5 269/4/5
f 274/1/5 271/1/5 270/1/5
f 274/4/5 270/4/5 273/4/5
f 275/4/5 272/4/5 271/4/5
f 275/1/5 271/1/5 274/1/5
f 276/4/5 272/4/5 275/4/5
f 279/1/5 278/1/5 277/1/5
f 280/1/5 278/1/5 279/1/5
f 281/1/5 278/1/5 280/1/5
f 282/1/5 278/1/5 281/1/5
f 283/7/5 281/7/5 280/7/5
f 284/7/5 281/7/5 283/7/5
f 287/4/5 286/4/5 285/4/5
f 292/4/5 286/4/5 287/4/5
f 293/4/5 289/4/5 288/4/5
f 294/1/5 290/1/5 289/1/5
f 294/4/5 289/4/5 293/4/5
f 295/1/5 290/1/5 294/1/5
f 296/1/5 292/1/5 291/1/5
f 297/4/5 286/4/5 292/4/5
f 297/1/5 292/1/5 296/1/5
f 298/4/5 286/4/5 297/4/5
f 303/7/5 300/7/5 299/7/5
f 304/7/5 300/7/5 303/7/5
f 305/7/5 302/7/5 301/7/5
f 306/7/5 302/7/5 305/7/5
f 309/6/5 308/6/5 307/6/5
f 310/6/5 308/6/5 309/6/5
f 315/6/5 312/6/5 311/6/5
f 316/6/5 312/6/5 315/6/5
f 317/6/5 314/6/5 313/6/5
f 318/6/5 314/6/5 317/6/5
f 323/1/5 320/1/5 319/1/5
f 324/1/5 320/1/5 323/1/5
f 325/1/5 322/1/5 321/1/5
f 326/1/5 322/1/5 325/1/5
f 327/1/5 323/1/5 319/1/5
f 328/1/5 322/1/5 326/1/5
f 329/1/5 327/1/5 319/1/5
f 329/1/5 328/1/5 327/1/5
f 330/1/5 322/1/5 328/1/5
f 330/1/5 328/1/5 329/1/5
f 335/1/5 332/1/5 331/1/5
f 336/1/5 332/1/5 335/1/5
f 337/1/5 334/1/5 333/1/5
f 338/1/5 334/1/5 337/1/5
f 339/1/6 340/1/6 341/1/6
f 341/1/6 340/1/6 342/1/6
f 343/7/6 344/7/6 345/7/6
f 345/7/6 344/7/6 346/7/6
f 347/4/6 348/4/6 349/4/6
f 349/4/6 348/4/6 352/4/6
f 350/4/6 351/4/6 353/4/6
f 351/1/6 352/1/6 354/1/6
f 353/4/6 351/4/6 354/4/6
f 352/4/6 348/4/6 355/4/6
f 354/1/6 352/1/6 355/1/6
f 355/4/6 348/4/6 356/4/6
f 357/2/6 358/2/6 359/2/6
f 359/2/6 358/2/6 360/2/6
f 361/1/6 362/1/6 365/1/6
f 365/1/6 362/1/6 366/1/6
f 363/1/6 364/1/6 367/1/6
f 367/1/6 364/1/6 368/1/6
f 369/7/6 370/7/6 373/7/6
f 373/7/6 370/7/6 374/7/6
f 371/7/6 372/7/6 375/7/6
f 375/7/6 372/7/6 376/7/6
f 377/8/6 378/8/6 379/8/6
f 379/8/6 378/8/6 380/8/6
f 379/6/6 380/6/6 381/6/6
f 381/6/6 380/6/6 382/6/6
f 382/6/6 380/6/6 383/6/6
f 383/6/6 380/6/6 384/6/6
f 382/1/6 383/1/6 385/1/6
f 385/1/6 383/1/6 386/1/6
f 382/1/6 385/1/6 387/1/6
f 385/4/6 386/4/6 387/4/6
f 386/1/6 383/1/6 388/1/6
f 387/4/6 386/4/6 388/4/6
f 381/4/6 382/4/6 389/4/6
f 382/1/6 387/1/6 390/1/6
f 389/4/6 382/4/6 390/4/6
f 390/1/6 387/1/6 391/1/6
f 388/1/6 383/1/6 392/1/6
f 383/4/6 384/4/6 393/4/6
f 392/1/6 383/1/6 393/1/6
f 393/4/6 384/4/6 394/4/6
