# MagicaVoxel @ Ephtracy

# group
o 

# material
mtllib KitchenSink.vox.mtl
usemtl palette

# normals
vn -1 0 0
vn 1 0 0
vn 0 0 1
vn 0 0 -1
vn 0 -1 0
vn 0 1 0

# texcoords
vt 0.0410156 0.5
vt 0.0488281 0.5
vt 0.166016 0.5
vt 0.576172 0.5
vt 0.705078 0.5
vt 0.751953 0.5
vt 0.962891 0.5
vt 0.970703 0.5
vt 0.978516 0.5

# verts
v -2 0 1.2
v -2 0 1
v -2 0 -1.8
v -2 0 -1.9
v -2 0.2 1
v -2 0.2 -1.8
v -2 2.1 1.2
v -2 2.1 -1.9
v -1.7 0.7 0.8
v -1.7 0.7 -1.1
v -1.7 1.5 0.8
v -1.7 1.5 -1.1
v -1.5 2.1 -1.1
v -1.5 2.1 -1.4
v -1.5 2.3 -1.1
v -1.5 2.3 -1.4
v -1.5 2.4 -1.1
v -1.5 2.4 -1.4
v -1.5 2.6 -1.1
v -1.5 2.6 -1.4
v -1.4 2.6 -1.2
v -1.4 2.6 -1.3
v -1.4 2.8 -0.9
v -1.4 2.8 -1.2
v -1.4 2.9 -0.9
v -1.4 2.9 -1.3
v -0.6 2.1 -1.1
v -0.6 2.1 -1.4
v -0.6 2.2 -1.1
v -0.6 2.2 -1.4
v -0.6 2.4 -1.1
v -0.6 2.4 -1.4
v -0.0999999 1.6 0.6
v -0.0999999 1.6 -0.9
v -0.0999999 1.8 0.8
v -0.0999999 1.8 0.6
v -0.0999999 1.8 -0.9
v -0.0999999 1.8 -1
v -0.0999999 2 0.8
v -0.0999999 2 -1
v -0.0999999 2.2 -1.1
v -0.0999999 2.2 -1.4
v -0.0999999 2.6 -0.6
v -0.0999999 2.6 -0.7
v -0.0999999 2.7 -0.7
v -0.0999999 2.7 -1.1
v -0.0999999 2.9 -0.6
v -0.0999999 2.9 -1.4
v 0.2 1.4 -0.1
v 0.2 1.4 -0.8
v 0.2 1.5 -0.1
v 0.2 1.5 -0.8
v 0.4 2.2 -1.1
v 0.4 2.2 -1.4
v 0.4 2.4 -1.1
v 0.4 2.4 -1.4
v 0.7 1.4 0.4
v 0.7 1.4 -0.1
v 0.7 1.5 -0.1
v 0.7 1.5 -0.3
v 0.7 1.6 0.4
v 0.7 1.6 -0.3
v 0.8 2.1 -1
v 0.8 2.1 -1.1
v 0.8 2.1 -1.4
v 0.8 2.2 -1
v 0.8 2.2 -1.4
v 0.9 1.6 -0.6
v 0.9 1.6 -0.7
v 0.9 2 -0.6
v 0.9 2 -0.7
v 1.1 1.4 -0.5
v 1.1 1.4 -0.9
v 1.1 1.6 -0.6
v 1.1 1.6 -0.7
v 1.1 1.7 -0.6
v 1.1 1.7 -0.7
v 1.1 1.8 -0.9
v 1.1 1.9 -0.6
v 1.1 1.9 -0.7
v 1.1 2 -0.5
v 1.1 2 -0.6
v 1.1 2 -0.7
v 1.1 2 -0.9
v 1.4 1.4 -0.6
v 1.4 1.4 -0.8
v 1.4 2 -0.6
v 1.4 2 -0.8
v 1.6 1.4 0.6
v 1.6 1.4 -0.9
v 1.6 1.8 0.6
v 1.6 1.8 -0.9
v 1.7 1.8 0.8
v 1.7 1.8 -1
v 1.7 2.1 0.8
v 1.7 2.1 -1
v 1.8 0 1.2
v 1.8 0 1
v 1.8 0 -1.8
v 1.8 0 -1.9
v 1.8 0.2 1
v 1.8 0.2 -1.8
v 1.8 0.4 -1.5
v 1.8 0.4 -1.8
v 1.8 1.3 -1.8
v 1.8 1.3 -1.9
v 1.8 1.5 1.1
v 1.8 1.5 -1.5
v 1.8 1.6 1.2
v 1.8 1.6 1.1
v -1.8 0 1.2
v -1.8 0 1
v -1.8 0 -1.8
v -1.8 0 -1.9
v -1.8 0.2 1
v -1.8 0.2 -1.8
v -1.8 0.4 -1.5
v -1.8 0.4 -1.8
v -1.8 1.3 -1.8
v -1.8 1.3 -1.9
v -1.8 1.5 1.1
v -1.8 1.5 -1.5
v -1.8 1.6 1.2
v -1.8 1.6 1.1
v -1.7 1.8 0.8
v -1.7 1.8 -1
v -1.7 2.1 0.8
v -1.7 2.1 -1
v -1.6 1.6 0.6
v -1.6 1.6 -0.9
v -1.6 1.8 0.6
v -1.6 1.8 -0.9
v -1.3 2.6 -1.2
v -1.3 2.6 -1.3
v -1.3 2.8 -0.9
v -1.3 2.8 -1.2
v -1.3 2.9 -0.9
v -1.3 2.9 -1.3
v -1.2 2.1 -1.1
v -1.2 2.1 -1.4
v -1.2 2.3 -1.1
v -1.2 2.3 -1.4
v -1.2 2.4 -1.1
v -1.2 2.4 -1.4
v -1.2 2.6 -1.1
v -1.2 2.6 -1.4
v -0.4 2.2 -1.1
v -0.4 2.2 -1.4
v -0.4 2.4 -1.1
v -0.4 2.4 -1.4
v 0.1 1.4 0.6
v 0.1 1.4 -0.9
v 0.1 1.8 0.8
v 0.1 1.8 0.6
v 0.1 1.8 -0.9
v 0.1 1.8 -1
v 0.1 2 0.8
v 0.1 2 -1
v 0.1 2.2 -1.1
v 0.1 2.2 -1.4
v 0.1 2.6 -0.6
v 0.1 2.6 -0.7
v 0.1 2.7 -0.7
v 0.1 2.7 -1.1
v 0.1 2.9 -0.6
v 0.1 2.9 -1.4
v 0.6 2.1 -1.1
v 0.6 2.1 -1.4
v 0.6 2.2 -1.1
v 0.6 2.2 -1.4
v 0.6 2.4 -1.1
v 0.6 2.4 -1.4
v 0.9 1.4 -0.3
v 0.9 1.4 -0.8
v 0.9 1.5 -0.3
v 0.9 1.5 -0.8
v 1 1.7 -0.6
v 1 1.7 -0.7
v 1 1.9 -0.6
v 1 1.9 -0.7
v 1.2 1.4 -0.6
v 1.2 1.4 -0.8
v 1.2 2 -0.6
v 1.2 2 -0.8
v 1.2 2.1 -1
v 1.2 2.1 -1.1
v 1.2 2.1 -1.4
v 1.2 2.2 -1
v 1.2 2.2 -1.4
v 1.5 1.4 0.4
v 1.5 1.4 -0.3
v 1.5 1.4 -0.5
v 1.5 1.4 -0.9
v 1.5 1.6 0.4
v 1.5 1.6 -0.3
v 1.5 1.8 -0.9
v 1.5 2 -0.5
v 1.5 2 -0.9
v 1.7 0.7 0.8
v 1.7 0.7 -1.1
v 1.7 1.5 0.8
v 1.7 1.5 -1.1
v 2 0 1.2
v 2 0 1
v 2 0 -1.8
v 2 0 -1.9
v 2 0.2 1
v 2 0.2 -1.8
v 2 2.1 1.2
v 2 2.1 -1.9
v -2 0 1.2
v -2 2.1 1.2
v -1.8 0 1.2
v -1.8 1.6 1.2
v 1.8 0 1.2
v 1.8 1.6 1.2
v 2 0 1.2
v 2 2.1 1.2
v -1.8 1.5 1.1
v -1.8 1.6 1.1
v 1.8 1.5 1.1
v 1.8 1.6 1.1
v -1.7 0.7 0.8
v -1.7 1.5 0.8
v 1.7 0.7 0.8
v 1.7 1.5 0.8
v 0.7 1.4 0.4
v 0.7 1.6 0.4
v 1.5 1.4 0.4
v 1.5 1.6 0.4
v 0.2 1.4 -0.1
v 0.2 1.5 -0.1
v 0.7 1.4 -0.1
v 0.7 1.5 -0.1
v 1.1 1.4 -0.5
v 1.1 2 -0.5
v 1.5 1.4 -0.5
v 1.5 2 -0.5
v -0.0999999 2.6 -0.6
v -0.0999999 2.9 -0.6
v 0.1 2.6 -0.6
v 0.1 2.9 -0.6
v 0.9 1.6 -0.6
v 0.9 2 -0.6
v 1 1.7 -0.6
v 1 1.9 -0.6
v 1.1 1.6 -0.6
v 1.1 1.7 -0.6
v 1.1 1.9 -0.6
v 1.1 2 -0.6
v 1.2 1.4 -0.8
v 1.2 2 -0.8
v 1.4 1.4 -0.8
v 1.4 2 -0.8
v -1.6 1.6 -0.9
v -1.6 1.8 -0.9
v -1.4 2.8 -0.9
v -1.4 2.9 -0.9
v -1.3 2.8 -0.9
v -1.3 2.9 -0.9
v -0.0999999 1.6 -0.9
v -0.0999999 1.8 -0.9
v 0.1 1.4 -0.9
v 0.1 1.8 -0.9
v 1.1 1.4 -0.9
v 1.1 1.8 -0.9
v 1.5 1.4 -0.9
v 1.5 1.8 -0.9
v 1.6 1.4 -0.9
v 1.6 1.8 -0.9
v -1.7 1.8 -1
v -1.7 2.1 -1
v -0.0999999 1.8 -1
v -0.0999999 2 -1
v 0.1 1.8 -1
v 0.1 2 -1
v 0.8 2.1 -1
v 0.8 2.2 -1
v 1.2 2.1 -1
v 1.2 2.2 -1
v 1.7 1.8 -1
v 1.7 2.1 -1
v -1.5 2.1 -1.1
v -1.5 2.3 -1.1
v -1.5 2.4 -1.1
v -1.5 2.6 -1.1
v -1.2 2.1 -1.1
v -1.2 2.3 -1.1
v -1.2 2.4 -1.1
v -1.2 2.6 -1.1
v -0.6 2.1 -1.1
v -0.6 2.2 -1.1
v -0.6 2.4 -1.1
v -0.4 2.2 -1.1
v -0.4 2.4 -1.1
v -0.0999999 2.2 -1.1
v -0.0999999 2.7 -1.1
v 0.1 2.2 -1.1
v 0.1 2.7 -1.1
v 0.4 2.2 -1.1
v 0.4 2.4 -1.1
v 0.6 2.1 -1.1
v 0.6 2.2 -1.1
v 0.6 2.4 -1.1
v -1.4 2.6 -1.2
v -1.4 2.8 -1.2
v -1.3 2.6 -1.2
v -1.3 2.8 -1.2
v -1.8 0.4 -1.5
v -1.8 1.5 -1.5
v 1.8 0.4 -1.5
v 1.8 1.5 -1.5
v -2 0 -1.8
v -2 0.2 -1.8
v -1.8 0 -1.8
v -1.8 0.2 -1.8
v 1.8 0 -1.8
v 1.8 0.2 -1.8
v 2 0 -1.8
v 2 0.2 -1.8
v -2 0 1
v -2 0.2 1
v -1.8 0 1
v -1.8 0.2 1
v 1.8 0 1
v 1.8 0.2 1
v 2 0 1
v 2 0.2 1
v -1.7 1.8 0.8
v -1.7 2.1 0.8
v -0.0999999 1.8 0.8
v -0.0999999 2 0.8
v 0.1 1.8 0.8
v 0.1 2 0.8
v 1.7 1.8 0.8
v 1.7 2.1 0.8
v -1.6 1.6 0.6
v -1.6 1.8 0.6
v -0.0999999 1.6 0.6
v -0.0999999 1.8 0.6
v 0.1 1.4 0.6
v 0.1 1.8 0.6
v 1.6 1.4 0.6
v 1.6 1.8 0.6
v 0.7 1.5 -0.3
v 0.7 1.6 -0.3
v 0.9 1.4 -0.3
v 0.9 1.5 -0.3
v 1.5 1.4 -0.3
v 1.5 1.6 -0.3
v 1.2 1.4 -0.6
v 1.2 2 -0.6
v 1.4 1.4 -0.6
v 1.4 2 -0.6
v -0.0999999 2.6 -0.7
v -0.0999999 2.7 -0.7
v 0.1 2.6 -0.7
v 0.1 2.7 -0.7
v 0.9 1.6 -0.7
v 0.9 2 -0.7
v 1 1.7 -0.7
v 1 1.9 -0.7
v 1.1 1.6 -0.7
v 1.1 1.7 -0.7
v 1.1 1.9 -0.7
v 1.1 2 -0.7
v 0.2 1.4 -0.8
v 0.2 1.5 -0.8
v 0.9 1.4 -0.8
v 0.9 1.5 -0.8
v 1.1 1.8 -0.9
v 1.1 2 -0.9
v 1.5 1.8 -0.9
v 1.5 2 -0.9
v -1.7 0.7 -1.1
v -1.7 1.5 -1.1
v 1.7 0.7 -1.1
v 1.7 1.5 -1.1
v -1.4 2.6 -1.3
v -1.4 2.9 -1.3
v -1.3 2.6 -1.3
v -1.3 2.9 -1.3
v -1.5 2.1 -1.4
v -1.5 2.3 -1.4
v -1.5 2.4 -1.4
v -1.5 2.6 -1.4
v -1.2 2.1 -1.4
v -1.2 2.3 -1.4
v -1.2 2.4 -1.4
v -1.2 2.6 -1.4
v -0.6 2.1 -1.4
v -0.6 2.2 -1.4
v -0.6 2.4 -1.4
v -0.4 2.2 -1.4
v -0.4 2.4 -1.4
v -0.0999999 2.2 -1.4
v -0.0999999 2.9 -1.4
v 0.1 2.2 -1.4
v 0.1 2.9 -1.4
v 0.4 2.2 -1.4
v 0.4 2.4 -1.4
v 0.6 2.1 -1.4
v 0.6 2.2 -1.4
v 0.6 2.4 -1.4
v 0.8 2.1 -1.4
v 0.8 2.2 -1.4
v 1.2 2.1 -1.4
v 1.2 2.2 -1.4
v -1.8 0.4 -1.8
v -1.8 1.3 -1.8
v 1.8 0.4 -1.8
v 1.8 1.3 -1.8
v -2 0 -1.9
v -2 2.1 -1.9
v -1.8 0 -1.9
v -1.8 1.3 -1.9
v 1.8 0 -1.9
v 1.8 1.3 -1.9
v 2 0 -1.9
v 2 2.1 -1.9
v -2 0 1.2
v -1.8 0 1.2
v 1.8 0 1.2
v 2 0 1.2
v -2 0 1
v -1.8 0 1
v 1.8 0 1
v 2 0 1
v -2 0 -1.8
v -1.8 0 -1.8
v 1.8 0 -1.8
v 2 0 -1.8
v -2 0 -1.9
v -1.8 0 -1.9
v 1.8 0 -1.9
v 2 0 -1.9
v -2 0.2 1
v -1.8 0.2 1
v 1.8 0.2 1
v 2 0.2 1
v -2 0.2 -1.8
v -1.8 0.2 -1.8
v 1.8 0.2 -1.8
v 2 0.2 -1.8
v -1.8 0.4 -1.5
v 1.8 0.4 -1.5
v -1.8 0.4 -1.8
v 1.8 0.4 -1.8
v -1.7 0.7 0.8
v 1.7 0.7 0.8
v -1.7 0.7 -1.1
v 1.7 0.7 -1.1
v -1.8 1.3 -1.8
v 1.8 1.3 -1.8
v -1.8 1.3 -1.9
v 1.8 1.3 -1.9
v -1.8 1.5 1.1
v 1.8 1.5 1.1
v -1.7 1.5 0.8
v 1.7 1.5 0.8
v -1.7 1.5 -1.1
v 1.7 1.5 -1.1
v -1.8 1.5 -1.5
v 1.8 1.5 -1.5
v -1.8 1.6 1.2
v 1.8 1.6 1.2
v -1.8 1.6 1.1
v 1.8 1.6 1.1
v 0.9 1.6 -0.6
v 1.1 1.6 -0.6
v 0.9 1.6 -0.7
v 1.1 1.6 -0.7
v 1 1.9 -0.6
v 1.1 1.9 -0.6
v 1 1.9 -0.7
v 1.1 1.9 -0.7
v -0.0999999 2.6 -0.6
v 0.1 2.6 -0.6
v -0.0999999 2.6 -0.7
v 0.1 2.6 -0.7
v -0.0999999 2.7 -0.7
v 0.1 2.7 -0.7
v -0.0999999 2.7 -1.1
v 0.1 2.7 -1.1
v -1.4 2.8 -0.9
v -1.3 2.8 -0.9
v -1.4 2.8 -1.2
v -1.3 2.8 -1.2
v 0.1 1.4 0.6
v 1.6 1.4 0.6
v 0.7 1.4 0.4
v 1.5 1.4 0.4
v 0.2 1.4 -0.1
v 0.7 1.4 -0.1
v 0.9 1.4 -0.3
v 1.5 1.4 -0.3
v 1.1 1.4 -0.5
v 1.5 1.4 -0.5
v 1.2 1.4 -0.6
v 1.4 1.4 -0.6
v 0.2 1.4 -0.8
v 0.9 1.4 -0.8
v 1.2 1.4 -0.8
v 1.4 1.4 -0.8
v 0.1 1.4 -0.9
v 1.1 1.4 -0.9
v 1.5 1.4 -0.9
v 1.6 1.4 -0.9
v 0.2 1.5 -0.1
v 0.7 1.5 -0.1
v 0.7 1.5 -0.3
v 0.9 1.5 -0.3
v 0.2 1.5 -0.8
v 0.9 1.5 -0.8
v -1.6 1.6 0.6
v -0.0999999 1.6 0.6
v 0.7 1.6 0.4
v 1.5 1.6 0.4
v 0.7 1.6 -0.3
v 1.5 1.6 -0.3
v -1.6 1.6 -0.9
v -0.0999999 1.6 -0.9
v 1 1.7 -0.6
v 1.1 1.7 -0.6
v 1 1.7 -0.7
v 1.1 1.7 -0.7
v -1.7 1.8 0.8
v -0.0999999 1.8 0.8
v 0.1 1.8 0.8
v 1.7 1.8 0.8
v -1.6 1.8 0.6
v -0.0999999 1.8 0.6
v 0.1 1.8 0.6
v 1.6 1.8 0.6
v -1.6 1.8 -0.9
v -0.0999999 1.8 -0.9
v 0.1 1.8 -0.9
v 1.1 1.8 -0.9
v 1.5 1.8 -0.9
v 1.6 1.8 -0.9
v -1.7 1.8 -1
v -0.0999999 1.8 -1
v 0.1 1.8 -1
v 1.7 1.8 -1
v -0.0999999 2 0.8
v 0.1 2 0.8
v 1.1 2 -0.5
v 1.5 2 -0.5
v 0.9 2 -0.6
v 1.1 2 -0.6
v 1.2 2 -0.6
v 1.4 2 -0.6
v 0.9 2 -0.7
v 1.1 2 -0.7
v 1.2 2 -0.8
v 1.4 2 -0.8
v 1.1 2 -0.9
v 1.5 2 -0.9
v -0.0999999 2 -1
v 0.1 2 -1
v -2 2.1 1.2
v 2 2.1 1.2
v -1.8 2.1 0.9
v 1.8 2.1 0.9
v -1.7 2.1 0.8
v 1.7 2.1 0.8
v -1.7 2.1 -1
v 0.8 2.1 -1
v 1.2 2.1 -1
v 1.7 2.1 -1
v -1.8 2.1 -1.1
v -1.5 2.1 -1.1
v -1.2 2.1 -1.1
v -0.6 2.1 -1.1
v 0.6 2.1 -1.1
v 0.8 2.1 -1.1
v 1.2 2.1 -1.1
v 1.8 2.1 -1.1
v -1.5 2.1 -1.4
v -1.2 2.1 -1.4
v -0.6 2.1 -1.4
v 0.6 2.1 -1.4
v 0.8 2.1 -1.4
v 1.2 2.1 -1.4
v -2 2.1 -1.9
v 2 2.1 -1.9
v 0.8 2.2 -1
v 1.2 2.2 -1
v -0.4 2.2 -1.1
v -0.0999999 2.2 -1.1
v 0.1 2.2 -1.1
v 0.4 2.2 -1.1
v -0.4 2.2 -1.4
v -0.0999999 2.2 -1.4
v 0.1 2.2 -1.4
v 0.4 2.2 -1.4
v 0.8 2.2 -1.4
v 1.2 2.2 -1.4
v -0.6 2.4 -1.1
v -0.4 2.4 -1.1
v 0.4 2.4 -1.1
v 0.6 2.4 -1.1
v -0.6 2.4 -1.4
v -0.4 2.4 -1.4
v 0.4 2.4 -1.4
v 0.6 2.4 -1.4
v -1.5 2.6 -1.1
v -1.2 2.6 -1.1
v -1.4 2.6 -1.2
v -1.3 2.6 -1.2
v -1.4 2.6 -1.3
v -1.3 2.6 -1.3
v -1.5 2.6 -1.4
v -1.2 2.6 -1.4
v -0.0999999 2.9 -0.6
v 0.1 2.9 -0.6
v -1.4 2.9 -0.9
v -1.3 2.9 -0.9
v -1.4 2.9 -1.3
v -1.3 2.9 -1.3
v -0.0999999 2.9 -1.4
v 0.1 2.9 -1.4

# faces
f 5/7/1 2/7/1 1/7/1
f 6/7/1 4/7/1 3/7/1
f 7/7/1 5/7/1 1/7/1
f 7/7/1 6/7/1 5/7/1
f 8/7/1 4/7/1 6/7/1
f 8/7/1 6/7/1 7/7/1
f 11/9/1 10/9/1 9/9/1
f 12/9/1 10/9/1 11/9/1
f 15/4/1 14/4/1 13/4/1
f 16/4/1 14/4/1 15/4/1
f 17/2/1 16/2/1 15/2/1
f 18/2/1 16/2/1 17/2/1
f 19/4/1 18/4/1 17/4/1
f 20/4/1 18/4/1 19/4/1
f 24/5/1 22/5/1 21/5/1
f 25/5/1 24/5/1 23/5/1
f 26/5/1 22/5/1 24/5/1
f 26/5/1 24/5/1 25/5/1
f 29/9/1 28/9/1 27/9/1
f 30/9/1 28/9/1 29/9/1
f 31/8/1 30/8/1 29/8/1
f 32/8/1 30/8/1 31/8/1
f 36/9/1 34/9/1 33/9/1
f 37/9/1 34/9/1 36/9/1
f 39/9/1 36/9/1 35/9/1
f 39/9/1 38/9/1 37/9/1
f 39/9/1 37/9/1 36/9/1
f 40/9/1 38/9/1 39/9/1
f 45/9/1 44/9/1 43/9/1
f 46/9/1 42/9/1 41/9/1
f 47/9/1 45/9/1 43/9/1
f 47/9/1 46/9/1 45/9/1
f 48/9/1 42/9/1 46/9/1
f 48/9/1 46/9/1 47/9/1
f 51/3/1 50/3/1 49/3/1
f 52/3/1 50/3/1 51/3/1
f 55/8/1 54/8/1 53/8/1
f 56/8/1 54/8/1 55/8/1
f 59/3/1 58/3/1 57/3/1
f 61/3/1 59/3/1 57/3/1
f 61/3/1 60/3/1 59/3/1
f 62/3/1 60/3/1 61/3/1
f 66/1/1 64/1/1 63/1/1
f 66/1/1 65/1/1 64/1/1
f 67/1/1 65/1/1 66/1/1
f 70/3/1 69/3/1 68/3/1
f 71/3/1 69/3/1 70/3/1
f 74/3/1 73/3/1 72/3/1
f 75/3/1 73/3/1 74/3/1
f 76/3/1 74/3/1 72/3/1
f 77/3/1 73/3/1 75/3/1
f 78/3/1 73/3/1 77/3/1
f 78/3/1 77/3/1 76/3/1
f 79/3/1 76/3/1 72/3/1
f 79/3/1 78/3/1 76/3/1
f 80/3/1 78/3/1 79/3/1
f 81/3/1 79/3/1 72/3/1
f 82/3/1 79/3/1 81/3/1
f 83/3/1 78/3/1 80/3/1
f 84/3/1 78/3/1 83/3/1
f 87/3/1 86/3/1 85/3/1
f 88/3/1 86/3/1 87/3/1
f 91/9/1 90/9/1 89/9/1
f 92/9/1 90/9/1 91/9/1
f 95/9/1 94/9/1 93/9/1
f 96/9/1 94/9/1 95/9/1
f 101/7/1 98/7/1 97/7/1
f 102/7/1 100/7/1 99/7/1
f 103/7/1 102/7/1 101/7/1
f 104/7/1 100/7/1 102/7/1
f 104/7/1 102/7/1 103/7/1
f 105/7/1 100/7/1 104/7/1
f 106/7/1 100/7/1 105/7/1
f 107/7/1 101/7/1 97/7/1
f 107/7/1 103/7/1 101/7/1
f 108/7/1 103/7/1 107/7/1
f 109/7/1 107/7/1 97/7/1
f 110/7/1 107/7/1 109/7/1
f 111/7/2 112/7/2 115/7/2
f 113/7/2 114/7/2 116/7/2
f 115/7/2 116/7/2 117/7/2
f 116/7/2 114/7/2 118/7/2
f 117/7/2 116/7/2 118/7/2
f 118/7/2 114/7/2 119/7/2
f 119/7/2 114/7/2 120/7/2
f 111/7/2 115/7/2 121/7/2
f 115/7/2 117/7/2 121/7/2
f 121/7/2 117/7/2 122/7/2
f 111/7/2 121/7/2 123/7/2
f 123/7/2 121/7/2 124/7/2
f 125/9/2 126/9/2 127/9/2
f 127/9/2 126/9/2 128/9/2
f 129/9/2 130/9/2 131/9/2
f 131/9/2 130/9/2 132/9/2
f 133/5/2 134/5/2 136/5/2
f 135/5/2 136/5/2 137/5/2
f 136/5/2 134/5/2 138/5/2
f 137/5/2 136/5/2 138/5/2
f 139/4/2 140/4/2 141/4/2
f 141/4/2 140/4/2 142/4/2
f 141/2/2 142/2/2 143/2/2
f 143/2/2 142/2/2 144/2/2
f 143/4/2 144/4/2 145/4/2
f 145/4/2 144/4/2 146/4/2
f 147/8/2 148/8/2 149/8/2
f 149/8/2 148/8/2 150/8/2
f 151/9/2 152/9/2 154/9/2
f 154/9/2 152/9/2 155/9/2
f 153/9/2 154/9/2 157/9/2
f 155/9/2 156/9/2 157/9/2
f 154/9/2 155/9/2 157/9/2
f 157/9/2 156/9/2 158/9/2
f 161/9/2 162/9/2 163/9/2
f 159/9/2 160/9/2 164/9/2
f 161/9/2 163/9/2 165/9/2
f 163/9/2 164/9/2 165/9/2
f 164/9/2 160/9/2 166/9/2
f 165/9/2 164/9/2 166/9/2
f 167/9/2 168/9/2 169/9/2
f 169/9/2 168/9/2 170/9/2
f 169/8/2 170/8/2 171/8/2
f 171/8/2 170/8/2 172/8/2
f 173/3/2 174/3/2 175/3/2
f 175/3/2 174/3/2 176/3/2
f 177/3/2 178/3/2 179/3/2
f 179/3/2 178/3/2 180/3/2
f 181/3/2 182/3/2 183/3/2
f 183/3/2 182/3/2 184/3/2
f 185/1/2 186/1/2 188/1/2
f 186/1/2 187/1/2 188/1/2
f 188/1/2 187/1/2 189/1/2
f 190/3/2 191/3/2 194/3/2
f 194/3/2 191/3/2 195/3/2
f 192/3/2 193/3/2 196/3/2
f 192/3/2 196/3/2 197/3/2
f 197/3/2 196/3/2 198/3/2
f 199/9/2 200/9/2 201/9/2
f 201/9/2 200/9/2 202/9/2
f 203/7/2 204/7/2 207/7/2
f 205/7/2 206/7/2 208/7/2
f 203/7/2 207/7/2 209/7/2
f 207/7/2 208/7/2 209/7/2
f 208/7/2 206/7/2 210/7/2
f 209/7/2 208/7/2 210/7/2
f 213/7/3 212/7/3 211/7/3
f 214/7/3 212/7/3 213/7/3
f 216/7/3 212/7/3 214/7/3
f 217/7/3 216/7/3 215/7/3
f 218/7/3 212/7/3 216/7/3
f 218/7/3 216/7/3 217/7/3
f 221/7/3 220/7/3 219/7/3
f 222/7/3 220/7/3 221/7/3
f 225/9/3 224/9/3 223/9/3
f 226/9/3 224/9/3 225/9/3
f 229/3/3 228/3/3 227/3/3
f 230/3/3 228/3/3 229/3/3
f 233/3/3 232/3/3 231/3/3
f 234/3/3 232/3/3 233/3/3
f 237/3/3 236/3/3 235/3/3
f 238/3/3 236/3/3 237/3/3
f 241/9/3 240/9/3 239/9/3
f 242/9/3 240/9/3 241/9/3
f 245/3/3 244/3/3 243/3/3
f 246/3/3 244/3/3 245/3/3
f 247/3/3 245/3/3 243/3/3
f 248/3/3 245/3/3 247/3/3
f 249/3/3 244/3/3 246/3/3
f 250/3/3 244/3/3 249/3/3
f 253/3/3 252/3/3 251/3/3
f 254/3/3 252/3/3 253/3/3
f 259/5/3 258/5/3 257/5/3
f 260/5/3 258/5/3 259/5/3
f 261/9/3 256/9/3 255/9/3
f 262/9/3 256/9/3 261/9/3
f 265/9/3 264/9/3 263/9/3
f 266/9/3 264/9/3 265/9/3
f 269/9/3 268/9/3 267/9/3
f 270/9/3 268/9/3 269/9/3
f 273/9/3 272/9/3 271/9/3
f 274/9/3 272/9/3 273/9/3
f 276/9/3 272/9/3 274/9/3
f 277/9/3 272/9/3 276/9/3
f 277/9/3 276/9/3 275/9/3
f 279/9/3 277/9/3 275/9/3
f 279/1/3 278/1/3 277/1/3
f 280/1/3 278/1/3 279/1/3
f 281/9/3 279/9/3 275/9/3
f 282/9/3 279/9/3 281/9/3
f 287/4/3 284/4/3 283/4/3
f 288/2/3 285/2/3 284/2/3
f 288/4/3 284/4/3 287/4/3
f 289/4/3 286/4/3 285/4/3
f 289/2/3 285/2/3 288/2/3
f 290/4/3 286/4/3 289/4/3
f 294/9/3 292/9/3 291/9/3
f 294/8/3 293/8/3 292/8/3
f 295/8/3 293/8/3 294/8/3
f 296/9/3 294/9/3 291/9/3
f 298/9/3 296/9/3 291/9/3
f 298/9/3 297/9/3 296/9/3
f 299/9/3 297/9/3 298/9/3
f 300/9/3 298/9/3 291/9/3
f 302/9/3 300/9/3 291/9/3
f 303/8/3 301/8/3 300/8/3
f 303/9/3 300/9/3 302/9/3
f 304/8/3 301/8/3 303/8/3
f 307/5/3 306/5/3 305/5/3
f 308/5/3 306/5/3 307/5/3
f 311/7/3 310/7/3 309/7/3
f 312/7/3 310/7/3 311/7/3
f 315/7/3 314/7/3 313/7/3
f 316/7/3 314/7/3 315/7/3
f 319/7/3 318/7/3 317/7/3
f 320/7/3 318/7/3 319/7/3
f 321/7/4 322/7/4 323/7/4
f 323/7/4 322/7/4 324/7/4
f 325/7/4 326/7/4 327/7/4
f 327/7/4 326/7/4 328/7/4
f 329/9/4 330/9/4 331/9/4
f 331/9/4 330/9/4 332/9/4
f 332/9/4 330/9/4 334/9/4
f 333/9/4 334/9/4 335/9/4
f 334/9/4 330/9/4 336/9/4
f 335/9/4 334/9/4 336/9/4
f 337/9/4 338/9/4 339/9/4
f 339/9/4 338/9/4 340/9/4
f 341/9/4 342/9/4 343/9/4
f 343/9/4 342/9/4 344/9/4
f 345/3/4 346/3/4 348/3/4
f 347/3/4 348/3/4 349/3/4
f 348/3/4 346/3/4 350/3/4
f 349/3/4 348/3/4 350/3/4
f 351/3/4 352/3/4 353/3/4
f 353/3/4 352/3/4 354/3/4
f 355/9/4 356/9/4 357/9/4
f 357/9/4 356/9/4 358/9/4
f 359/3/4 360/3/4 361/3/4
f 361/3/4 360/3/4 362/3/4
f 359/3/4 361/3/4 363/3/4
f 363/3/4 361/3/4 364/3/4
f 362/3/4 360/3/4 365/3/4
f 365/3/4 360/3/4 366/3/4
f 367/3/4 368/3/4 369/3/4
f 369/3/4 368/3/4 370/3/4
f 371/3/4 372/3/4 373/3/4
f 373/3/4 372/3/4 374/3/4
f 375/9/4 376/9/4 377/9/4
f 377/9/4 376/9/4 378/9/4
f 379/5/4 380/5/4 381/5/4
f 381/5/4 380/5/4 382/5/4
f 383/4/4 384/4/4 387/4/4
f 384/2/4 385/2/4 388/2/4
f 387/4/4 384/4/4 388/4/4
f 385/4/4 386/4/4 389/4/4
f 388/2/4 385/2/4 389/2/4
f 389/4/4 386/4/4 390/4/4
f 391/9/4 392/9/4 394/9/4
f 392/8/4 393/8/4 394/8/4
f 394/8/4 393/8/4 395/8/4
f 391/9/4 394/9/4 396/9/4
f 391/9/4 396/9/4 398/9/4
f 396/9/4 397/9/4 398/9/4
f 398/9/4 397/9/4 399/9/4
f 391/9/4 398/9/4 400/9/4
f 391/9/4 400/9/4 402/9/4
f 400/8/4 401/8/4 403/8/4
f 402/9/4 400/9/4 403/9/4
f 403/8/4 401/8/4 404/8/4
f 405/1/4 406/1/4 407/1/4
f 407/1/4 406/1/4 408/1/4
f 409/7/4 410/7/4 411/7/4
f 411/7/4 410/7/4 412/7/4
f 413/7/4 414/7/4 415/7/4
f 415/7/4 414/7/4 416/7/4
f 416/7/4 414/7/4 418/7/4
f 417/7/4 418/7/4 419/7/4
f 418/7/4 414/7/4 420/7/4
f 419/7/4 418/7/4 420/7/4
f 425/7/5 422/7/5 421/7/5
f 426/7/5 422/7/5 425/7/5
f 427/7/5 424/7/5 423/7/5
f 428/7/5 424/7/5 427/7/5
f 433/7/5 430/7/5 429/7/5
f 434/7/5 430/7/5 433/7/5
f 435/7/5 432/7/5 431/7/5
f 436/7/5 432/7/5 435/7/5
f 441/7/5 438/7/5 437/7/5
f 442/7/5 438/7/5 441/7/5
f 443/7/5 440/7/5 439/7/5
f 444/7/5 440/7/5 443/7/5
f 447/7/5 446/7/5 445/7/5
f 448/7/5 446/7/5 447/7/5
f 451/9/5 450/9/5 449/9/5
f 452/9/5 450/9/5 451/9/5
f 455/7/5 454/7/5 453/7/5
f 456/7/5 454/7/5 455/7/5
f 459/7/5 458/7/5 457/7/5
f 460/7/5 458/7/5 459/7/5
f 461/7/5 459/7/5 457/7/5
f 462/7/5 458/7/5 460/7/5
f 463/7/5 461/7/5 457/7/5
f 463/7/5 462/7/5 461/7/5
f 464/7/5 458/7/5 462/7/5
f 464/7/5 462/7/5 463/7/5
f 467/7/5 466/7/5 465/7/5
f 468/7/5 466/7/5 467/7/5
f 471/3/5 470/3/5 469/3/5
f 472/3/5 470/3/5 471/3/5
f 475/3/5 474/3/5 473/3/5
f 476/3/5 474/3/5 475/3/5
f 479/9/5 478/9/5 477/9/5
f 480/9/5 478/9/5 479/9/5
f 483/9/5 482/9/5 481/9/5
f 484/9/5 482/9/5 483/9/5
f 487/5/5 486/5/5 485/5/5
f 488/5/5 486/5/5 487/5/5
f 489/9/6 490/9/6 491/9/6
f 491/9/6 490/9/6 492/9/6
f 489/9/6 491/9/6 493/9/6
f 493/9/6 491/9/6 494/9/6
f 492/9/6 490/9/6 496/9/6
f 495/9/6 496/9/6 497/9/6
f 496/9/6 490/9/6 498/9/6
f 497/9/6 496/9/6 498/9/6
f 489/9/6 493/9/6 501/9/6
f 495/9/6 497/9/6 502/9/6
f 499/9/6 500/9/6 503/9/6
f 503/9/6 500/9/6 504/9/6
f 501/9/6 502/9/6 505/9/6
f 489/9/6 501/9/6 505/9/6
f 502/9/6 497/9/6 506/9/6
f 505/9/6 502/9/6 506/9/6
f 498/9/6 490/9/6 507/9/6
f 507/9/6 490/9/6 508/9/6
f 509/3/6 510/3/6 511/3/6
f 509/3/6 511/3/6 513/3/6
f 511/3/6 512/3/6 513/3/6
f 513/3/6 512/3/6 514/3/6
f 517/3/6 518/3/6 519/3/6
f 519/3/6 518/3/6 520/3/6
f 515/6/6 516/6/6 521/6/6
f 521/6/6 516/6/6 522/6/6
f 523/3/6 524/3/6 525/3/6
f 525/3/6 524/3/6 526/3/6
f 527/9/6 528/9/6 531/9/6
f 531/9/6 528/9/6 532/9/6
f 529/9/6 530/9/6 533/9/6
f 533/9/6 530/9/6 534/9/6
f 527/9/6 531/9/6 535/9/6
f 534/9/6 530/9/6 540/9/6
f 527/9/6 535/9/6 541/9/6
f 535/9/6 536/9/6 541/9/6
f 541/9/6 536/9/6 542/9/6
f 538/9/6 539/9/6 543/9/6
f 539/9/6 540/9/6 543/9/6
f 537/9/6 538/9/6 543/9/6
f 540/9/6 530/9/6 544/9/6
f 543/9/6 540/9/6 544/9/6
f 547/3/6 548/3/6 550/3/6
f 550/3/6 548/3/6 551/3/6
f 551/3/6 548/3/6 552/3/6
f 549/3/6 550/3/6 553/3/6
f 550/3/6 551/3/6 553/3/6
f 553/3/6 551/3/6 554/3/6
f 554/3/6 551/3/6 555/3/6
f 552/3/6 548/3/6 556/3/6
f 554/3/6 555/3/6 557/3/6
f 555/3/6 556/3/6 557/3/6
f 556/3/6 548/3/6 558/3/6
f 557/3/6 556/3/6 558/3/6
f 545/9/6 546/9/6 559/9/6
f 559/9/6 546/9/6 560/9/6
f 561/7/6 562/7/6 563/7/6
f 563/7/6 562/7/6 564/7/6
f 563/9/6 564/9/6 565/9/6
f 565/9/6 564/9/6 566/9/6
f 563/9/6 565/9/6 567/9/6
f 566/9/6 564/9/6 570/9/6
f 561/7/6 563/7/6 571/7/6
f 567/9/6 568/9/6 571/9/6
f 563/9/6 567/9/6 571/9/6
f 571/9/6 568/9/6 572/9/6
f 572/9/6 568/9/6 573/9/6
f 573/9/6 568/9/6 574/9/6
f 574/9/6 568/9/6 575/9/6
f 575/9/6 568/9/6 576/9/6
f 569/9/6 570/9/6 577/9/6
f 564/7/6 562/7/6 578/7/6
f 577/9/6 570/9/6 578/9/6
f 570/9/6 564/9/6 578/9/6
f 571/7/6 572/7/6 579/7/6
f 573/7/6 574/7/6 580/7/6
f 580/7/6 574/7/6 581/7/6
f 575/7/6 576/7/6 582/7/6
f 582/7/6 576/7/6 583/7/6
f 577/7/6 578/7/6 584/7/6
f 580/7/6 581/7/6 585/7/6
f 583/7/6 584/7/6 585/7/6
f 561/7/6 571/7/6 585/7/6
f 582/7/6 583/7/6 585/7/6
f 581/7/6 582/7/6 585/7/6
f 571/7/6 579/7/6 585/7/6
f 579/7/6 580/7/6 585/7/6
f 584/7/6 578/7/6 586/7/6
f 585/7/6 584/7/6 586/7/6
f 578/7/6 562/7/6 586/7/6
f 589/9/6 590/9/6 593/9/6
f 593/9/6 590/9/6 594/9/6
f 591/9/6 592/9/6 595/9/6
f 595/9/6 592/9/6 596/9/6
f 587/1/6 588/1/6 597/1/6
f 597/1/6 588/1/6 598/1/6
f 599/8/6 600/8/6 603/8/6
f 603/8/6 600/8/6 604/8/6
f 601/8/6 602/8/6 605/8/6
f 605/8/6 602/8/6 606/8/6
f 607/4/6 608/4/6 609/4/6
f 609/4/6 608/4/6 610/4/6
f 607/4/6 609/4/6 611/4/6
f 610/4/6 608/4/6 612/4/6
f 607/4/6 611/4/6 613/4/6
f 611/4/6 612/4/6 613/4/6
f 612/4/6 608/4/6 614/4/6
f 613/4/6 612/4/6 614/4/6
f 617/5/6 618/5/6 619/5/6
f 619/5/6 618/5/6 620/5/6
f 615/9/6 616/9/6 621/9/6
f 621/9/6 616/9/6 622/9/6
