# MagicaVoxel @ Ephtracy

# group
o 

# material
mtllib SimpleChair.vox.mtl
usemtl palette

# normals
vn -1 0 0
vn 1 0 0
vn 0 0 1
vn 0 0 -1
vn 0 -1 0
vn 0 1 0

# texcoords
vt 0.373047 0.5
vt 0.392578 0.5
vt 0.517578 0.5
vt 0.548828 0.5
vt 0.923828 0.5

# verts
v -0.6 0 1.4
v -0.6 0 1.2
v -0.6 0 -0.1
v -0.6 0 -0.3
v -0.6 1 1.2
v -0.6 1 -0.1
v -0.6 1.1 1.4
v -0.6 1.1 -0.3
v -0.6 1.3 1.1
v -0.6 1.3 -0.3
v -0.6 2.9 1.4
v -0.6 2.9 1.1
v -0.5 1.3 1.1
v -0.5 1.3 -0.3
v -0.5 1.4 1.1
v -0.5 1.4 -0.3
v -0.5 1.6 1.1
v -0.5 1.6 1
v -0.5 2.8 1.1
v -0.5 2.8 1
v -0.4 2.1 1
v -0.4 2.1 0.9
v -0.4 2.8 1
v -0.4 2.8 0.9
v -0.3 1.7 1
v -0.3 1.7 0.9
v -0.3 2.1 1
v -0.3 2.1 0.9
v 0.9 0 1.4
v 0.9 0 1.2
v 0.9 0 -0.1
v 0.9 0 -0.3
v 0.9 1 1.4
v 0.9 1 1.2
v 0.9 1 -0.1
v 0.9 1 -0.3
v -0.4 0 1.4
v -0.4 0 1.2
v -0.4 0 -0.1
v -0.4 0 -0.3
v -0.4 1 1.4
v -0.4 1 1.2
v -0.4 1 -0.1
v -0.4 1 -0.3
v 0.8 1.7 1
v 0.8 1.7 0.9
v 0.8 2 1
v 0.8 2.1 1
v 0.8 2.1 0.9
v 0.9 2.1 1
v 0.9 2.1 0.9
v 0.9 2.8 1
v 0.9 2.8 0.9
v 1 1.3 1.1
v 1 1.3 0.7
v 1 1.3 0.6
v 1 1.3 0.2
v 1 1.3 0.1
v 1 1.3 -0.3
v 1 1.4 1.1
v 1 1.4 0.7
v 1 1.4 0.6
v 1 1.4 0.2
v 1 1.4 0.1
v 1 1.4 -0.3
v 1 1.6 1.1
v 1 1.6 1
v 1 2.8 1.1
v 1 2.8 1
v 1.1 0 1.4
v 1.1 0 1.2
v 1.1 0 -0.1
v 1.1 0 -0.3
v 1.1 0.1 -0.2
v 1.1 0.1 -0.3
v 1.1 0.2 -0.2
v 1.1 0.2 -0.3
v 1.1 0.4 1.3
v 1.1 0.4 1.2
v 1.1 0.5 1.3
v 1.1 0.5 1.2
v 1.1 0.5 -0.2
v 1.1 0.5 -0.3
v 1.1 0.6 -0.2
v 1.1 0.6 -0.3
v 1.1 1 1.2
v 1.1 1 -0.1
v 1.1 1.1 1.4
v 1.1 1.1 -0.3
v 1.1 1.3 1.1
v 1.1 1.3 -0.3
v 1.1 2.9 1.4
v 1.1 2.9 1.1
v -0.6 0 1.4
v -0.6 1.1 1.4
v -0.6 2.9 1.4
v -0.4 0 1.4
v -0.4 1 1.4
v 0.9 0 1.4
v 0.9 1 1.4
v 1.1 0 1.4
v 1.1 1.1 1.4
v 1.1 2.9 1.4
v -0.6 0 -0.1
v -0.6 1 -0.1
v -0.4 0 -0.1
v -0.4 1 -0.1
v 0.9 0 -0.1
v 0.9 1 -0.1
v 1.1 0 -0.1
v 1.1 1 -0.1
v -0.6 0 1.2
v -0.6 1 1.2
v -0.4 0 1.2
v -0.4 1 1.2
v 0.9 0 1.2
v 0.9 1 1.2
v 1 0.4 1.2
v 1 0.5 1.2
v 1.1 0 1.2
v 1.1 0.4 1.2
v 1.1 0.5 1.2
v 1.1 1 1.2
v -0.6 1.3 1.1
v -0.6 2.9 1.1
v -0.5 1.3 1.1
v -0.5 1.4 1.1
v -0.5 1.6 1.1
v -0.5 2.8 1.1
v 1 1.3 1.1
v 1 1.4 1.1
v 1 1.6 1.1
v 1 2.8 1.1
v 1.1 1.3 1.1
v 1.1 2.9 1.1
v -0.5 1.6 1
v -0.5 2.8 1
v -0.4 2.1 1
v -0.4 2.8 1
v -0.3 1.7 1
v -0.3 2.1 1
v -0.2 1.7 1
v -0.0999999 1.7 1
v 0.8 1.7 1
v 0.8 2 1
v 0.8 2.1 1
v 0.9 2 1
v 0.9 2.1 1
v 0.9 2.8 1
v 1 1.6 1
v 1 2.8 1
v -0.4 2.1 0.9
v -0.4 2.8 0.9
v -0.3 1.7 0.9
v -0.3 2.1 0.9
v -0.2 1.7 0.9
v -0.2 1.8 0.9
v -0.0999999 1.7 0.9
v -0.0999999 1.8 0.9
v 0.8 1.7 0.9
v 0.8 2.1 0.9
v 0.9 2.1 0.9
v 0.9 2.8 0.9
v -0.6 0 -0.3
v -0.6 1.1 -0.3
v -0.6 1.3 -0.3
v -0.5 1.3 -0.3
v -0.5 1.4 -0.3
v -0.4 0 -0.3
v -0.4 1 -0.3
v 0.3 1.3 -0.3
v 0.3 1.4 -0.3
v 0.4 1.3 -0.3
v 0.4 1.4 -0.3
v 0.9 0 -0.3
v 0.9 1 -0.3
v 1 0.1 -0.3
v 1 0.2 -0.3
v 1 0.5 -0.3
v 1 0.6 -0.3
v 1 1.3 -0.3
v 1 1.4 -0.3
v 1.1 0 -0.3
v 1.1 0.1 -0.3
v 1.1 0.2 -0.3
v 1.1 0.5 -0.3
v 1.1 0.6 -0.3
v 1.1 1.1 -0.3
v 1.1 1.3 -0.3
v -0.6 0 1.4
v -0.4 0 1.4
v 0.9 0 1.4
v 1.1 0 1.4
v -0.6 0 1.2
v -0.4 0 1.2
v 0.9 0 1.2
v 1.1 0 1.2
v -0.6 0 -0.1
v -0.4 0 -0.1
v 0.9 0 -0.1
v 1.1 0 -0.1
v -0.6 0 -0.3
v -0.4 0 -0.3
v 0.9 0 -0.3
v 1.1 0 -0.3
v -0.4 1 1.4
v 0.9 1 1.4
v -0.6 1 1.2
v -0.4 1 1.2
v 0.9 1 1.2
v 1.1 1 1.2
v -0.6 1 -0.1
v -0.4 1 -0.1
v 0.9 1 -0.1
v 1.1 1 -0.1
v -0.4 1 -0.3
v 0.9 1 -0.3
v -0.5 1.6 1.1
v 1 1.6 1.1
v -0.5 1.6 1
v 1 1.6 1
v -0.3 1.7 1
v -0.2 1.7 1
v -0.0999999 1.7 1
v 0.8 1.7 1
v -0.3 1.7 0.9
v -0.2 1.7 0.9
v -0.0999999 1.7 0.9
v 0.8 1.7 0.9
v -0.4 2.1 1
v -0.3 2.1 1
v 0.8 2.1 1
v 0.9 2.1 1
v -0.4 2.1 0.9
v -0.3 2.1 0.9
v 0.8 2.1 0.9
v 0.9 2.1 0.9
v -0.6 1.3 1.1
v -0.5 1.3 1.1
v 1 1.3 1.1
v 1.1 1.3 1.1
v 1 1.3 0.7
v 1 1.3 0.6
v 1 1.3 0.2
v 1 1.3 0.1
v -0.6 1.3 -0.3
v -0.5 1.3 -0.3
v 1 1.3 -0.3
v 1.1 1.3 -0.3
v -0.5 1.4 1.1
v 1 1.4 1.1
v 0.2 1.4 0.9
v 0.3 1.4 0.9
v 0.2 1.4 0.8
v 0.3 1.4 0.8
v 0.9 1.4 0.7
v 1 1.4 0.7
v 0.6 1.4 0.6
v 0.7 1.4 0.6
v 0.9 1.4 0.6
v 1 1.4 0.6
v 0.6 1.4 0.5
v 0.7 1.4 0.5
v 0.2 1.4 0.4
v 0.3 1.4 0.4
v 0.2 1.4 0.3
v 0.3 1.4 0.3
v 0.9 1.4 0.2
v 1 1.4 0.2
v -0.4 1.4 0.1
v -0.3 1.4 0.1
v 0.9 1.4 0.1
v 1 1.4 0.1
v -0.4 1.4 0
v -0.3 1.4 0
v 0.3 1.4 -0.2
v 0.4 1.4 -0.2
v -0.5 1.4 -0.3
v 0.3 1.4 -0.3
v 0.4 1.4 -0.3
v 1 1.4 -0.3
v -0.5 2.8 1.1
v 1 2.8 1.1
v -0.5 2.8 1
v -0.4 2.8 1
v 0.9 2.8 1
v 1 2.8 1
v -0.4 2.8 0.9
v 0.9 2.8 0.9
v -0.6 2.9 1.4
v 1.1 2.9 1.4
v -0.6 2.9 1.1
v 1.1 2.9 1.1

# faces
f 5/1/1 2/1/1 1/1/1
f 6/1/1 4/1/1 3/1/1
f 7/1/1 5/1/1 1/1/1
f 7/1/1 6/1/1 5/1/1
f 8/1/1 4/1/1 6/1/1
f 8/1/1 6/1/1 7/1/1
f 9/5/1 8/5/1 7/5/1
f 10/5/1 8/5/1 9/5/1
f 11/5/1 9/5/1 7/5/1
f 12/5/1 9/5/1 11/5/1
f 15/4/1 14/4/1 13/4/1
f 16/4/1 14/4/1 15/4/1
f 19/3/1 18/3/1 17/3/1
f 20/3/1 18/3/1 19/3/1
f 23/3/1 22/3/1 21/3/1
f 24/3/1 22/3/1 23/3/1
f 27/3/1 26/3/1 25/3/1
f 28/3/1 26/3/1 27/3/1
f 33/1/1 30/1/1 29/1/1
f 34/1/1 30/1/1 33/1/1
f 35/1/1 32/1/1 31/1/1
f 36/1/1 32/1/1 35/1/1
f 37/1/2 38/1/2 41/1/2
f 41/1/2 38/1/2 42/1/2
f 39/1/2 40/1/2 43/1/2
f 43/1/2 40/1/2 44/1/2
f 45/3/2 46/3/2 47/3/2
f 47/3/2 46/3/2 48/3/2
f 48/3/2 46/3/2 49/3/2
f 50/3/2 51/3/2 52/3/2
f 52/3/2 51/3/2 53/3/2
f 54/4/2 55/4/2 60/4/2
f 55/2/2 56/2/2 61/2/2
f 60/4/2 55/4/2 61/4/2
f 56/4/2 57/4/2 62/4/2
f 61/2/2 56/2/2 62/2/2
f 57/3/2 58/3/2 63/3/2
f 62/4/2 57/4/2 63/4/2
f 58/4/2 59/4/2 64/4/2
f 63/3/2 58/3/2 64/3/2
f 64/4/2 59/4/2 65/4/2
f 66/3/2 67/3/2 68/3/2
f 68/3/2 67/3/2 69/3/2
f 72/1/2 73/1/2 74/1/2
f 74/1/2 73/1/2 75/1/2
f 72/1/2 74/1/2 76/1/2
f 74/2/2 75/2/2 76/2/2
f 76/2/2 75/2/2 77/2/2
f 70/1/2 71/1/2 78/1/2
f 78/1/2 71/1/2 79/1/2
f 70/1/2 78/1/2 80/1/2
f 78/2/2 79/2/2 80/2/2
f 80/2/2 79/2/2 81/2/2
f 72/1/2 76/1/2 82/1/2
f 76/1/2 77/1/2 82/1/2
f 82/1/2 77/1/2 83/1/2
f 72/1/2 82/1/2 84/1/2
f 82/2/2 83/2/2 84/2/2
f 84/2/2 83/2/2 85/2/2
f 80/1/2 81/1/2 86/1/2
f 72/1/2 84/1/2 87/1/2
f 84/1/2 85/1/2 87/1/2
f 70/1/2 80/1/2 88/1/2
f 86/1/2 87/1/2 88/1/2
f 80/1/2 86/1/2 88/1/2
f 87/1/2 85/1/2 89/1/2
f 88/1/2 87/1/2 89/1/2
f 88/5/2 89/5/2 90/5/2
f 90/5/2 89/5/2 91/5/2
f 88/5/2 90/5/2 92/5/2
f 92/5/2 90/5/2 93/5/2
f 97/1/3 95/1/3 94/1/3
f 98/1/3 95/1/3 97/1/3
f 100/1/3 95/1/3 98/1/3
f 101/1/3 100/1/3 99/1/3
f 102/5/3 96/5/3 95/5/3
f 102/1/3 100/1/3 101/1/3
f 102/1/3 95/1/3 100/1/3
f 103/5/3 96/5/3 102/5/3
f 106/1/3 105/1/3 104/1/3
f 107/1/3 105/1/3 106/1/3
f 110/1/3 109/1/3 108/1/3
f 111/1/3 109/1/3 110/1/3
f 112/1/4 113/1/4 114/1/4
f 114/1/4 113/1/4 115/1/4
f 116/1/4 117/1/4 118/1/4
f 118/1/4 117/1/4 119/1/4
f 116/1/4 118/1/4 120/1/4
f 118/2/4 119/2/4 121/2/4
f 120/1/4 118/1/4 121/1/4
f 119/1/4 117/1/4 122/1/4
f 121/2/4 119/2/4 122/2/4
f 122/1/4 117/1/4 123/1/4
f 124/5/4 125/5/4 126/5/4
f 126/5/4 125/5/4 127/5/4
f 127/5/4 125/5/4 128/5/4
f 128/5/4 125/5/4 129/5/4
f 127/5/4 128/5/4 131/5/4
f 131/5/4 128/5/4 132/5/4
f 129/5/4 125/5/4 133/5/4
f 131/5/4 132/5/4 134/5/4
f 132/5/4 133/5/4 134/5/4
f 130/5/4 131/5/4 134/5/4
f 133/5/4 125/5/4 135/5/4
f 134/5/4 133/5/4 135/5/4
f 136/3/4 137/3/4 138/3/4
f 138/3/4 137/3/4 139/3/4
f 136/3/4 138/3/4 140/3/4
f 140/3/4 138/3/4 141/3/4
f 136/3/4 140/3/4 142/3/4
f 136/3/4 142/3/4 143/3/4
f 136/3/4 143/3/4 144/3/4
f 144/3/4 145/3/4 147/3/4
f 145/2/4 146/2/4 147/2/4
f 147/2/4 146/2/4 148/2/4
f 147/3/4 148/3/4 150/3/4
f 148/3/4 149/3/4 150/3/4
f 144/3/4 147/3/4 150/3/4
f 136/3/4 144/3/4 150/3/4
f 150/3/4 149/3/4 151/3/4
f 152/3/4 153/3/4 155/3/4
f 154/3/4 155/3/4 156/3/4
f 156/3/4 155/3/4 157/3/4
f 156/2/4 157/2/4 158/2/4
f 157/3/4 155/3/4 159/3/4
f 158/2/4 157/2/4 159/2/4
f 158/3/4 159/3/4 160/3/4
f 155/3/4 153/3/4 161/3/4
f 160/3/4 159/3/4 161/3/4
f 159/3/4 155/3/4 161/3/4
f 161/3/4 153/3/4 162/3/4
f 162/3/4 153/3/4 163/3/4
f 165/5/4 166/5/4 167/5/4
f 164/1/4 165/1/4 169/1/4
f 169/1/4 165/1/4 170/1/4
f 167/4/4 168/4/4 171/4/4
f 165/5/4 167/5/4 171/5/4
f 171/4/4 168/4/4 172/4/4
f 165/5/4 171/5/4 173/5/4
f 171/3/4 172/3/4 173/3/4
f 173/3/4 172/3/4 174/3/4
f 170/1/4 165/1/4 176/1/4
f 175/1/4 176/1/4 177/1/4
f 177/1/4 176/1/4 178/1/4
f 178/1/4 176/1/4 179/1/4
f 179/1/4 176/1/4 180/1/4
f 165/5/4 173/5/4 181/5/4
f 173/4/4 174/4/4 181/4/4
f 181/4/4 174/4/4 182/4/4
f 175/1/4 177/1/4 183/1/4
f 177/2/4 178/2/4 184/2/4
f 183/1/4 177/1/4 184/1/4
f 178/1/4 179/1/4 185/1/4
f 184/2/4 178/2/4 185/2/4
f 179/2/4 180/2/4 186/2/4
f 185/1/4 179/1/4 186/1/4
f 180/1/4 176/1/4 187/1/4
f 186/2/4 180/2/4 187/2/4
f 176/1/4 165/1/4 188/1/4
f 187/1/4 176/1/4 188/1/4
f 165/5/4 181/5/4 188/5/4
f 188/5/4 181/5/4 189/5/4
f 194/1/5 191/1/5 190/1/5
f 195/1/5 191/1/5 194/1/5
f 196/1/5 193/1/5 192/1/5
f 197/1/5 193/1/5 196/1/5
f 202/1/5 199/1/5 198/1/5
f 203/1/5 199/1/5 202/1/5
f 204/1/5 201/1/5 200/1/5
f 205/1/5 201/1/5 204/1/5
f 209/1/5 207/1/5 206/1/5
f 210/1/5 207/1/5 209/1/5
f 212/1/5 209/1/5 208/1/5
f 212/1/5 211/1/5 210/1/5
f 212/1/5 210/1/5 209/1/5
f 213/1/5 211/1/5 212/1/5
f 214/1/5 211/1/5 213/1/5
f 215/1/5 211/1/5 214/1/5
f 216/1/5 214/1/5 213/1/5
f 217/1/5 214/1/5 216/1/5
f 220/3/5 219/3/5 218/3/5
f 221/3/5 219/3/5 220/3/5
f 226/3/5 223/3/5 222/3/5
f 227/2/5 224/2/5 223/2/5
f 227/3/5 223/3/5 226/3/5
f 228/3/5 225/3/5 224/3/5
f 228/2/5 224/2/5 227/2/5
f 229/3/5 225/3/5 228/3/5
f 234/3/5 231/3/5 230/3/5
f 235/3/5 231/3/5 234/3/5
f 236/3/5 233/3/5 232/3/5
f 237/3/5 233/3/5 236/3/5
f 240/5/6 241/5/6 242/5/6
f 242/5/6 241/5/6 243/5/6
f 243/5/6 241/5/6 244/5/6
f 244/5/6 241/5/6 245/5/6
f 238/5/6 239/5/6 246/5/6
f 246/5/6 239/5/6 247/5/6
f 245/5/6 241/5/6 248/5/6
f 248/5/6 241/5/6 249/5/6
f 250/4/6 251/4/6 252/4/6
f 252/4/6 251/4/6 253/4/6
f 250/4/6 252/4/6 254/4/6
f 252/3/6 253/3/6 254/3/6
f 253/4/6 251/4/6 255/4/6
f 254/3/6 253/3/6 255/3/6
f 254/4/6 255/4/6 256/4/6
f 255/4/6 251/4/6 256/4/6
f 256/4/6 251/4/6 257/4/6
f 254/4/6 256/4/6 258/4/6
f 258/4/6 256/4/6 259/4/6
f 256/2/6 257/2/6 260/2/6
f 259/4/6 256/4/6 260/4/6
f 260/2/6 257/2/6 261/2/6
f 258/3/6 259/3/6 262/3/6
f 254/4/6 258/4/6 262/4/6
f 260/4/6 261/4/6 263/4/6
f 262/3/6 259/3/6 263/3/6
f 259/4/6 260/4/6 263/4/6
f 250/4/6 254/4/6 264/4/6
f 254/4/6 262/4/6 264/4/6
f 262/4/6 263/4/6 264/4/6
f 264/4/6 263/4/6 265/4/6
f 250/4/6 264/4/6 266/4/6
f 264/3/6 265/3/6 266/3/6
f 265/4/6 263/4/6 267/4/6
f 266/3/6 265/3/6 267/3/6
f 263/4/6 261/4/6 268/4/6
f 267/4/6 263/4/6 268/4/6
f 266/4/6 267/4/6 268/4/6
f 268/4/6 261/4/6 269/4/6
f 250/4/6 266/4/6 270/4/6
f 266/4/6 268/4/6 270/4/6
f 270/4/6 268/4/6 271/4/6
f 268/3/6 269/3/6 272/3/6
f 271/4/6 268/4/6 272/4/6
f 272/3/6 269/3/6 273/3/6
f 270/3/6 271/3/6 274/3/6
f 250/4/6 270/4/6 274/4/6
f 272/4/6 273/4/6 275/4/6
f 274/3/6 271/3/6 275/3/6
f 271/4/6 272/4/6 275/4/6
f 274/4/6 275/4/6 276/4/6
f 275/4/6 273/4/6 276/4/6
f 276/4/6 273/4/6 277/4/6
f 250/4/6 274/4/6 278/4/6
f 274/4/6 276/4/6 278/4/6
f 276/3/6 277/3/6 279/3/6
f 278/4/6 276/4/6 279/4/6
f 277/4/6 273/4/6 280/4/6
f 279/3/6 277/3/6 280/3/6
f 280/4/6 273/4/6 281/4/6
f 282/3/6 283/3/6 284/3/6
f 284/3/6 283/3/6 285/3/6
f 285/3/6 283/3/6 286/3/6
f 286/3/6 283/3/6 287/3/6
f 285/3/6 286/3/6 288/3/6
f 288/3/6 286/3/6 289/3/6
f 290/5/6 291/5/6 292/5/6
f 292/5/6 291/5/6 293/5/6
